<svg
        width="133px"
        height="27px"
        viewBox="0 0 133 27"
        version="1.1"
        xmlns="http://www.w3.org/2000/svg"
        xmlns:xlink="http://www.w3.org/1999/xlink"
>
    <defs>
        <polygon id="path-1" points="0.1034 0.5814 11.903 0.5814 11.903 13.4814 0.1034 13.4814"></polygon>
        <polygon id="path-3" points="0.767 11.643 10.397 16.862 5.362 0.977"></polygon>
        <polygon id="path-5" points="0.673 11.062 14.406 0.888 2.374 0.271"></polygon>
        <polygon id="path-7" points="0.905 2.171 14.639 12.096 11.637 0.323"></polygon>
        <polygon id="path-9" points="0.905 17.182 10.715 10.586 5.692 0.506"></polygon>
        <polygon id="path-11" points="9.841 8.387 18.344 0.98 0.689 0.463"></polygon>
    </defs>
    <g id="MilMove-logo" stroke="none" stroke-width="1" fill="none" fill-rule="evenodd">
        <g id="Group-30">
            <polygon
                    id="Fill-1"
                    fill="#FFFFFF"
                    points="38.5033 3.8957 43.6033 3.8957 47.6033 16.2957 51.6033 3.8957 56.7033 3.8957 56.7033 21.2957 53.2033 21.2957 53.2033 7.9957 49.0033 21.2957 46.3033 21.2957 42.1033 8.0957 42.1033 21.2957 38.6033 21.2957 38.6033 3.8957"
            ></polygon>
            <path
                    d="M60.404,21.2952 L63.704,21.2952 L63.704,8.8952 L60.404,8.8952 L60.404,21.2952 Z M60.304,7.0952 L63.704,7.0952 L63.704,3.9952 L60.304,3.9952 L60.304,7.0952 Z"
                    id="Fill-2"
                    fill="#FFFFFF"
            ></path>
            <g id="Group-14" transform="translate(67.000000, 3.114200)">
                <path
                        d="M0.0033,14.6814 L0.0033,0.3814 L3.4033,0.3814 L3.4033,14.2814 C3.4033,15.1814 3.7033,15.7814 4.8033,15.8814 L5.4033,15.8814 L5.4033,18.0814 C4.9033,18.2814 4.4033,18.3814 3.9033,18.3814 C0.3033,18.3814 0.0033,16.4814 0.0033,14.6814"
                        id="Fill-3"
                        fill="#FFFFFF"
                ></path>
                <polygon
                        id="Fill-5"
                        fill="#FFFFFF"
                        points="8.203 0.7815 13.304 0.7815 17.304 13.1815 21.304 0.7815 26.403 0.7815 26.403 18.1815 22.903 18.1815 22.903 4.8815 18.603 18.1815 15.903 18.1815 11.703 4.9815 11.703 18.1815 8.203 18.1815"
                ></polygon>
                <path
                        d="M37.4032,11.8816 C37.4032,9.8816 36.8032,8.0816 34.8032,8.0816 C32.9032,8.0816 32.2032,9.7816 32.2032,11.8816 C32.2032,13.7806 32.8032,15.7806 34.8032,15.7806 C36.7032,15.7806 37.4032,13.9816 37.4032,11.8816 M28.8032,12.0816 C28.8032,8.1816 31.1032,5.5816 34.8032,5.5816 C38.5042,5.5816 40.8032,8.0816 40.8032,12.0816 C40.8032,15.7806 38.6032,18.4816 34.8032,18.4816 C31.2032,18.3816 28.8032,15.9816 28.8032,12.0816"
                        id="Fill-7"
                        fill="#FFFFFF"
                ></path>
                <polygon
                        id="Fill-9"
                        fill="#FFFFFF"
                        points="48.703 18.1814 46.203 18.1814 41.504 5.7814 44.703 5.7814 47.403 13.6814 47.504 13.6814 50.203 5.7814 53.403 5.7814"
                ></polygon>
                <g id="Group-13" transform="translate(54.000000, 5.000000)">
                    <mask id="mask-2" fill="white">
                        <use xlink:href="#path-1"></use>
                    </mask>
                    <g id="Clip-12"></g>
                    <path
                            d="M8.6034,5.6814 C8.6034,4.1814 7.8034,2.9814 6.1034,2.9814 C4.5034,2.9814 3.5034,4.2814 3.5034,5.6814 L8.6034,5.6814 Z M6.2034,10.8814 C7.4034,10.8814 8.3034,10.3814 8.7034,9.2814 L11.9034,9.2814 C11.4034,11.9814 8.9034,13.4814 6.3034,13.4814 C2.6034,13.4814 0.1034,11.0814 0.1034,7.1814 C0.1034,3.4814 2.3034,0.5814 6.1034,0.5814 C9.9034,0.5814 11.9034,3.1814 11.9034,6.8814 L11.9034,7.7814 L3.6034,7.7814 C3.6034,9.6814 4.5034,10.8814 6.2034,10.8814 L6.2034,10.8814 Z"
                            id="Fill-11"
                            fill="#FFFFFF"
                            mask="url(#mask-2)"
                    ></path>
                </g>
            </g>
            <g id="Group-17" transform="translate(18.000000, 0.114200)">
                <mask id="mask-4" fill="white">
                    <use xlink:href="#path-3"></use>
                </mask>
                <g id="Clip-16"></g>
                <polygon
                        id="Fill-15"
                        fill="#FFBE2E"
                        mask="url(#mask-4)"
                        points="-3.5728 -4.2502 16.0342 -3.5502 15.1232 21.9388 -4.4838 21.2388"
                ></polygon>
            </g>
            <g id="Group-20" transform="translate(14.000000, 16.114200)">
                <mask id="mask-6" fill="white">
                    <use xlink:href="#path-5"></use>
                </mask>
                <g id="Clip-19"></g>
                <polygon
                        id="Fill-18"
                        fill="#FFBE2E"
                        mask="url(#mask-6)"
                        points="-4.232 15.966 19.311 15.966 19.311 -4.634 -4.232 -4.634"
                ></polygon>
            </g>
            <g id="Group-23" transform="translate(0.000000, 15.114200)">
                <mask id="mask-8" fill="white">
                    <use xlink:href="#path-7"></use>
                </mask>
                <g id="Clip-22"></g>
                <polygon
                        id="Fill-21"
                        fill="#FFBE2E"
                        mask="url(#mask-8)"
                        points="-4 17 19.543 17 19.543 -4.581 -4 -4.581"
                ></polygon>
            </g>
            <g id="Group-26" transform="translate(0.000000, 0.114200)">
                <mask id="mask-10" fill="white">
                    <use xlink:href="#path-9"></use>
                </mask>
                <g id="Clip-25"></g>
                <polygon
                        id="Fill-24"
                        fill="#FFBE2E"
                        mask="url(#mask-10)"
                        points="-4 22.087 15.62 22.087 15.62 -4.399 -4 -4.399"
                ></polygon>
            </g>
            <g id="Group-29" transform="translate(5.000000, 0.114200)">
                <mask id="mask-12" fill="white">
                    <use xlink:href="#path-11"></use>
                </mask>
                <g id="Clip-28"></g>
                <polygon
                        id="Fill-27"
                        fill="#FFBE2E"
                        mask="url(#mask-12)"
                        points="-3.9273 -5.114 23.5017 -3.658 22.5657 13.974 -4.8633 12.518"
                ></polygon>
            </g>
        </g>
    </g>
</svg>