<svg
        id="jumbotron"
        width="335px"
        height="388px"
        viewBox="0 0 335 388"
        version="1.1"
        xmlns="http://www.w3.org/2000/svg"
        xmlns:xlink="http://www.w3.org/1999/xlink"
>
    <title>illustration</title>
    <defs>
        <linearGradient x1="50.0133014%" y1="100%" x2="50.0133014%" y2="0.223214286%" id="linearGradient-1">
            <stop stop-color="#808080" stop-opacity="0.25" offset="0%"></stop>
            <stop stop-color="#808080" stop-opacity="0.12" offset="54%"></stop>
            <stop stop-color="#808080" stop-opacity="0.1" offset="100%"></stop>
        </linearGradient>
        <linearGradient x1="49.9865605%" y1="100%" x2="49.9865605%" y2="-0.0237191933%" id="linearGradient-2">
            <stop stop-color="#808080" stop-opacity="0.25" offset="0%"></stop>
            <stop stop-color="#808080" stop-opacity="0.12" offset="54%"></stop>
            <stop stop-color="#808080" stop-opacity="0.1" offset="100%"></stop>
        </linearGradient>
        <linearGradient x1="49.9987829%" y1="100.010091%" x2="49.9987829%" y2="-0.00561662235%" id="linearGradient-3">
            <stop stop-color="#808080" stop-opacity="0.25" offset="0%"></stop>
            <stop stop-color="#808080" stop-opacity="0.12" offset="54%"></stop>
            <stop stop-color="#808080" stop-opacity="0.1" offset="100%"></stop>
        </linearGradient>
        <linearGradient x1="50%" y1="100%" x2="50%" y2="0.00923872875%" id="linearGradient-4">
            <stop stop-color="#808080" stop-opacity="0.25" offset="0%"></stop>
            <stop stop-color="#808080" stop-opacity="0.12" offset="54%"></stop>
            <stop stop-color="#808080" stop-opacity="0.1" offset="100%"></stop>
        </linearGradient>
        <linearGradient x1="50.0196887%" y1="100.000397%" x2="50.0196887%" y2="-0.00714773576%" id="linearGradient-5">
            <stop stop-color="#808080" stop-opacity="0.25" offset="0%"></stop>
            <stop stop-color="#808080" stop-opacity="0.12" offset="54%"></stop>
            <stop stop-color="#808080" stop-opacity="0.1" offset="100%"></stop>
        </linearGradient>
        <linearGradient x1="50%" y1="100%" x2="50%" y2="0%" id="linearGradient-6">
            <stop stop-color="#808080" stop-opacity="0.25" offset="0%"></stop>
            <stop stop-color="#808080" stop-opacity="0.12" offset="54%"></stop>
            <stop stop-color="#808080" stop-opacity="0.1" offset="100%"></stop>
        </linearGradient>
        <linearGradient x1="49.9955543%" y1="100.018779%" x2="49.9955543%" y2="0%" id="linearGradient-7">
            <stop stop-color="#808080" stop-opacity="0.25" offset="0%"></stop>
            <stop stop-color="#808080" stop-opacity="0.12" offset="54%"></stop>
            <stop stop-color="#808080" stop-opacity="0.1" offset="100%"></stop>
        </linearGradient>
        <linearGradient x1="49.9992403%" y1="100.028907%" x2="49.9992403%" y2="0.0289073039%" id="linearGradient-8">
            <stop stop-color="#808080" stop-opacity="0.25" offset="0%"></stop>
            <stop stop-color="#808080" stop-opacity="0.12" offset="54%"></stop>
            <stop stop-color="#808080" stop-opacity="0.1" offset="100%"></stop>
        </linearGradient>
        <linearGradient x1="50.0066577%" y1="100.007741%" x2="50.0066577%" y2="0%" id="linearGradient-9">
            <stop stop-color="#808080" stop-opacity="0.25" offset="0%"></stop>
            <stop stop-color="#808080" stop-opacity="0.12" offset="54%"></stop>
            <stop stop-color="#808080" stop-opacity="0.1" offset="100%"></stop>
        </linearGradient>
        <linearGradient x1="50.0536097%" y1="100.093824%" x2="50.0536097%" y2="0.086586353%" id="linearGradient-10">
            <stop stop-color="#808080" stop-opacity="0.25" offset="0%"></stop>
            <stop stop-color="#808080" stop-opacity="0.12" offset="54%"></stop>
            <stop stop-color="#808080" stop-opacity="0.1" offset="100%"></stop>
        </linearGradient>
        <linearGradient x1="49.9916472%" y1="100.004726%" x2="49.9916472%" y2="0%" id="linearGradient-11">
            <stop stop-color="#808080" stop-opacity="0.25" offset="0%"></stop>
            <stop stop-color="#808080" stop-opacity="0.12" offset="54%"></stop>
            <stop stop-color="#808080" stop-opacity="0.1" offset="100%"></stop>
        </linearGradient>
        <linearGradient x1="49.9828891%" y1="99.9897529%" x2="49.9828891%" y2="-0.0107208456%" id="linearGradient-12">
            <stop stop-color="#808080" stop-opacity="0.25" offset="0%"></stop>
            <stop stop-color="#808080" stop-opacity="0.12" offset="54%"></stop>
            <stop stop-color="#808080" stop-opacity="0.1" offset="100%"></stop>
        </linearGradient>
        <linearGradient x1="49.9856999%" y1="100%" x2="49.9856999%" y2="-0.0313904215%" id="linearGradient-13">
            <stop stop-color="#808080" stop-opacity="0.25" offset="0%"></stop>
            <stop stop-color="#808080" stop-opacity="0.12" offset="54%"></stop>
            <stop stop-color="#808080" stop-opacity="0.1" offset="100%"></stop>
        </linearGradient>
        <linearGradient
                x1="50.0273724%"
                y1="99.9750224%"
                x2="50.0273724%"
                y2="-0.00561662235%"
                id="linearGradient-14"
        >
            <stop stop-color="#808080" stop-opacity="0.25" offset="0%"></stop>
            <stop stop-color="#808080" stop-opacity="0.12" offset="54%"></stop>
            <stop stop-color="#808080" stop-opacity="0.1" offset="100%"></stop>
        </linearGradient>
        <linearGradient x1="50.021561%" y1="100%" x2="50.021561%" y2="0%" id="linearGradient-15">
            <stop stop-color="#808080" stop-opacity="0.25" offset="0%"></stop>
            <stop stop-color="#808080" stop-opacity="0.12" offset="54%"></stop>
            <stop stop-color="#808080" stop-opacity="0.1" offset="100%"></stop>
        </linearGradient>
        <linearGradient x1="50%" y1="100%" x2="50%" y2="0%" id="linearGradient-16">
            <stop stop-color="#808080" stop-opacity="0.25" offset="0%"></stop>
            <stop stop-color="#808080" stop-opacity="0.12" offset="54%"></stop>
            <stop stop-color="#808080" stop-opacity="0.1" offset="100%"></stop>
        </linearGradient>
        <linearGradient x1="50.005883%" y1="100%" x2="50.005883%" y2="0%" id="linearGradient-17">
            <stop stop-color="#808080" stop-opacity="0.25" offset="0%"></stop>
            <stop stop-color="#808080" stop-opacity="0.12" offset="54%"></stop>
            <stop stop-color="#808080" stop-opacity="0.1" offset="100%"></stop>
        </linearGradient>
        <linearGradient x1="50.0055073%" y1="100%" x2="50.0055073%" y2="-0.0187793427%" id="linearGradient-18">
            <stop stop-color="#808080" stop-opacity="0.25" offset="0%"></stop>
            <stop stop-color="#808080" stop-opacity="0.12" offset="54%"></stop>
            <stop stop-color="#808080" stop-opacity="0.1" offset="100%"></stop>
        </linearGradient>
        <linearGradient x1="49.9835638%" y1="100%" x2="49.9835638%" y2="-0.0187793427%" id="linearGradient-19">
            <stop stop-color="#808080" stop-opacity="0.25" offset="0%"></stop>
            <stop stop-color="#808080" stop-opacity="0.12" offset="54%"></stop>
            <stop stop-color="#808080" stop-opacity="0.1" offset="100%"></stop>
        </linearGradient>
        <linearGradient x1="50%" y1="100%" x2="50%" y2="0%" id="linearGradient-20">
            <stop stop-color="#808080" stop-opacity="0.25" offset="0%"></stop>
            <stop stop-color="#808080" stop-opacity="0.12" offset="54%"></stop>
            <stop stop-color="#808080" stop-opacity="0.1" offset="100%"></stop>
        </linearGradient>
        <linearGradient x1="49.9935757%" y1="100%" x2="49.9935757%" y2="0%" id="linearGradient-21">
            <stop stop-color="#808080" stop-opacity="0.25" offset="0%"></stop>
            <stop stop-color="#808080" stop-opacity="0.12" offset="54%"></stop>
            <stop stop-color="#808080" stop-opacity="0.1" offset="100%"></stop>
        </linearGradient>
        <linearGradient x1="49.960287%" y1="99.9608974%" x2="49.960287%" y2="0.00677444961%" id="linearGradient-22">
            <stop stop-color="#808080" stop-opacity="0.25" offset="0%"></stop>
            <stop stop-color="#808080" stop-opacity="0.12" offset="54%"></stop>
            <stop stop-color="#808080" stop-opacity="0.1" offset="100%"></stop>
        </linearGradient>
    </defs>
    <g id="MilMove-status-and-maint-page" stroke="none" stroke-width="1" fill="none" fill-rule="evenodd">
        <g id="Maintenance-page---2" transform="translate(-553.000000, -136.000000)">
            <g id="illustration" transform="translate(553.000000, 136.000000)">
                <rect
                        id="Rectangle"
                        fill="#B0BEC5"
                        fill-rule="nonzero"
                        x="167.84621"
                        y="142.185949"
                        width="4.81003817"
                        height="3.20838698"
                ></rect>
                <rect
                        id="Rectangle"
                        fill="#B0BEC5"
                        fill-rule="nonzero"
                        x="174.2579"
                        y="142.185949"
                        width="4.81003817"
                        height="3.20838698"
                ></rect>
                <rect
                        id="Rectangle"
                        fill="#B0BEC5"
                        fill-rule="nonzero"
                        x="180.674674"
                        y="142.185949"
                        width="4.81003817"
                        height="3.20838698"
                ></rect>
                <rect
                        id="Rectangle"
                        fill="#B0BEC5"
                        fill-rule="nonzero"
                        x="187.086363"
                        y="142.185949"
                        width="4.81003817"
                        height="3.20838698"
                ></rect>
                <rect
                        id="Rectangle"
                        fill="#B0BEC5"
                        fill-rule="nonzero"
                        x="193.503137"
                        y="142.185949"
                        width="4.81003817"
                        height="3.20838698"
                ></rect>
                <rect
                        id="Rectangle"
                        fill="#B0BEC5"
                        fill-rule="nonzero"
                        x="199.919911"
                        y="142.185949"
                        width="4.81003817"
                        height="3.20838698"
                ></rect>
                <rect
                        id="Rectangle"
                        fill="#B0BEC5"
                        fill-rule="nonzero"
                        x="206.3316"
                        y="142.185949"
                        width="4.81003817"
                        height="3.20838698"
                ></rect>
                <rect
                        id="Rectangle"
                        fill="#B0BEC5"
                        fill-rule="nonzero"
                        x="212.748374"
                        y="142.185949"
                        width="4.81003817"
                        height="3.20838698"
                ></rect>
                <rect
                        id="Rectangle"
                        fill="#B0BEC5"
                        fill-rule="nonzero"
                        x="219.160064"
                        y="142.185949"
                        width="4.81003817"
                        height="3.20838698"
                ></rect>
                <rect
                        id="Rectangle"
                        fill="#B0BEC5"
                        fill-rule="nonzero"
                        x="225.576838"
                        y="142.185949"
                        width="4.81003817"
                        height="3.20838698"
                ></rect>
                <rect id="Rectangle" fill="#C9C9C9" x="129" y="146" width="206" height="230" rx="5"></rect>
                <rect id="Rectangle" fill="#E6E6E6" x="133" y="300" width="198" height="71" rx="3"></rect>
                <circle id="Oval" fill="#FFBE2E" cx="304" cy="335" r="8"></circle>
                <rect id="Rectangle" fill="#ADADAD" x="149" y="319" width="7.75402559" height="31" rx="3"></rect>
                <g id="Group" opacity="0.7" transform="translate(163.167383, 319.000000)" fill="#ADADAD">
                    <rect id="Rectangle" x="0.832617491" y="0" width="8" height="31" rx="3"></rect>
                </g>
                <g id="Group" opacity="0.6" transform="translate(178.580739, 319.000000)" fill="#ADADAD">
                    <rect id="Rectangle" x="0.578796665" y="0" width="8" height="31" rx="3"></rect>
                </g>
                <rect id="Rectangle" fill="#E6E6E6" x="133" y="225" width="198" height="71" rx="3"></rect>
                <circle id="Oval" fill="#FFBE2E" cx="304" cy="260" r="8"></circle>
                <rect id="Rectangle" fill="#ADADAD" x="149" y="244" width="7.75402559" height="30" rx="3"></rect>
                <g id="Group" opacity="0.7" transform="translate(163.167383, 244.000000)" fill="#ADADAD">
                    <rect id="Rectangle" x="0.832617491" y="0" width="8" height="30" rx="3"></rect>
                </g>
                <g id="Group" opacity="0.6" transform="translate(178.580739, 244.000000)" fill="#ADADAD">
                    <rect id="Rectangle" x="0.578796665" y="0" width="8" height="30" rx="3"></rect>
                </g>
                <rect id="Rectangle" fill="#E6E6E6" x="133" y="150" width="198" height="71" rx="3"></rect>
                <rect id="Rectangle" fill="#CECECE" x="211" y="181" width="60" height="8" rx="3"></rect>
                <rect id="Rectangle-Copy" fill="#CECECE" x="211" y="255" width="60" height="8" rx="3"></rect>
                <rect id="Rectangle-Copy-2" fill="#CECECE" x="211" y="331" width="60" height="8" rx="3"></rect>
                <rect id="Rectangle" fill="#ADADAD" x="149" y="169" width="7.75402559" height="31" rx="3"></rect>
                <g id="Group" opacity="0.7" transform="translate(163.167383, 169.000000)" fill="#ADADAD">
                    <rect id="Rectangle" x="0.832617491" y="0" width="8" height="31" rx="3"></rect>
                </g>
                <g id="Group" opacity="0.6" transform="translate(178.580739, 169.000000)" fill="#ADADAD">
                    <rect id="Rectangle" x="0.578796665" y="0" width="8" height="31" rx="3"></rect>
                </g>
                <circle id="Oval" fill="#FFBE2E" fill-rule="nonzero" cx="304" cy="185" r="8"></circle>
                <path
                        d="M238.405301,152.878877 L164.495454,152.878877 C163.091379,152.878877 161.953151,151.740649 161.953151,150.336573 L161.953151,146.309565 C161.953151,144.905489 163.091379,143.767261 164.495454,143.767261 L238.405301,143.767261 L238.405301,152.878877 Z"
                        id="Path"
                        fill="url(#linearGradient-1)"
                        fill-rule="nonzero"
                ></path>
                <path
                        d="M238.405301,151.806025 L165.832706,151.806025 C164.428631,151.806025 163.290402,150.667797 163.290402,149.263721 L163.290402,146.838364 C163.290402,145.434288 164.428631,144.29606 165.832706,144.29606 L238.405301,144.29606 L238.405301,151.806025 Z"
                        id="Path"
                        fill="#B0BEC5"
                        fill-rule="nonzero"
                ></path>
                <path
                        d="M50.0612905,103.329382 L103.449663,150.555212 L165.481868,137.452179 L160.676915,123.474595 L112.60704,129.149016 L64.5117434,86.9467787 C62.1844055,84.9040173 59.0996051,83.944694 56.0242365,84.3073005 C52.9488678,84.6699071 50.1717806,86.3203861 48.3833702,88.8484217 L48.3833702,88.8484217 C45.1704802,93.3976413 45.8932538,99.6353965 50.0612905,103.329382 Z"
                        id="Path"
                        fill="url(#linearGradient-2)"
                        fill-rule="nonzero"
                ></path>
                <path
                        d="M165.45136,137.452179 C165.45136,137.452179 181.274657,137.889456 187.121955,129.154101 C192.969253,120.418746 160.646407,123.474595 160.646407,123.474595 L165.45136,137.452179 Z"
                        id="Path"
                        fill="url(#linearGradient-3)"
                        fill-rule="nonzero"
                ></path>
                <circle
                        id="Oval"
                        fill="url(#linearGradient-4)"
                        fill-rule="nonzero"
                        cx="43.0597867"
                        cy="45.0292791"
                        r="27.5178928"
                ></circle>
                <path
                        d="M31.7058594,75.1657444 C31.7058594,75.1657444 -3.63215883,98.9617049 5.34217242,172.525798 C6.43493668,181.412668 4.66411958,190.065988 2.07597004,198.637573 C0.691990014,205.891134 -6.39488462e-14,211.088103 -6.39488462e-14,214.228479 C4.21965748,214.405175 76.7363521,215.404429 78.423228,214.051783 C79.7757335,212.968762 78.7232198,185.247485 74.930103,146.792602 C72.6064377,123.235618 79.8926794,90.4653267 54.840821,72.5573411 L31.7058594,75.1657444 Z"
                        id="Path"
                        fill="url(#linearGradient-5)"
                        fill-rule="nonzero"
                ></path>
                <path
                        d="M112.93754,286.121002 L116.867941,360.366432 L92.4109817,360.366432 L81.9265222,283.497345 L60.9626878,246.374629 L39.9988533,360.366432 L15.541894,360.366432 L22.9654201,275.636542 L4.28797695,228.903735 C1.42932565,223.074881 0.0119896836,218.183129 0.0359690507,214.228479 C0.805003864,214.228479 2.17381404,214.218759 4.14270384,214.199318 C10.6920097,214.13465 35.4555742,213.795649 78.4333972,213.182315 L112.93754,286.121002 Z"
                        id="Path"
                        fill="url(#linearGradient-6)"
                        fill-rule="nonzero"
                ></path>
                <path
                        d="M116.873026,360.366432 L124.296552,371.72036 C124.296552,371.72036 149.211126,381.330267 138.274136,387.441964 L90.6669615,387.441964 L90.6669615,360.366432 L116.873026,360.366432 Z"
                        id="Path"
                        fill="url(#linearGradient-7)"
                        fill-rule="nonzero"
                ></path>
                <path
                        d="M39.5666618,360.366432 L46.9901879,371.72036 C46.9901879,371.72036 71.9047619,381.330267 60.9677724,387.441964 L13.3605976,387.441964 L13.3605976,360.366432 L39.5666618,360.366432 Z"
                        id="Path"
                        fill="url(#linearGradient-7)"
                        fill-rule="nonzero"
                ></path>
                <g
                        id="Group"
                        opacity="0.2"
                        transform="translate(29.524563, 16.779203)"
                        fill="url(#linearGradient-8)"
                        fill-rule="nonzero"
                >
                    <path
                            d="M13.9724999,0.29999181 C9.22171794,0.290300602 4.55016088,1.51689098 0.416937769,3.85921667 C13.8462807,-1.98982232 29.5036906,3.70854747 36.0321567,16.8210468 C42.5606227,29.9335461 37.6707985,45.8619962 24.9094894,53.0527888 C36.8788539,47.8673128 43.562972,34.9906938 40.915598,22.2178218 C38.268224,9.44494983 27.0168414,0.285738998 13.9724999,0.284737989 L13.9724999,0.29999181 Z"
                            id="Path"
                    ></path>
                </g>
                <path
                        d="M76.5114158,0 L68.8539977,11.694596 C66.1032254,15.8995659 62.1067243,20.6740118 57.1594018,19.6977673 C54.8611594,19.2452373 53.0205317,17.5876554 51.1849886,16.1385424 C45.1800678,11.3691811 37.7514571,8.13537111 30.0838698,8.08960965 C22.4162825,8.04384818 14.570734,11.4962963 10.2539027,17.8266319 C7.05568496,22.4993857 5.95232526,28.26533 5.321834,33.8889053 C4.05576687,45.1360558 5.321834,58.4119646 14.713103,64.7270464 C15.4715172,65.3313913 16.4078666,65.6691203 17.3774371,65.6880371 C18.3943584,65.6219372 19.2180648,64.9761921 19.9807558,64.3355316 C31.7363671,54.486648 38.2853408,38.4701361 52.4408865,31.7076089 C58.6898685,28.7280292 67.7811457,28.7026062 72.8199912,23.6383377 C80.2435173,16.1944731 72.0267925,6.84896555 76.5114158,0 Z"
                        id="Path"
                        fill="url(#linearGradient-9)"
                        fill-rule="nonzero"
                ></path>
                <g id="Group" opacity="0.2" transform="translate(15.287664, 0.000000)" fill-rule="nonzero">
                    <path
                            d="M32.8414762,16.1385424 C34.6770193,17.5978246 36.5125625,19.2554065 38.8158894,19.6977673 C39.7512394,19.8832582 40.7156495,19.8641782 41.6429309,19.6418366 C39.4514653,19.1333759 37.6769374,17.5317247 35.9024096,16.1283732 C29.8974888,11.3590119 22.4688781,8.12520189 14.8012908,8.07944043 C14.2623225,8.07944043 13.7284387,8.07944043 13.1894704,8.12520189 C20.3587662,8.54722427 27.2484086,11.694596 32.8414762,16.1385424 Z"
                            id="Path"
                            fill="url(#linearGradient-10)"
                    ></path>
                    <path
                            d="M61.2237522,0 L56.8052288,6.75744263 C57.2272511,12.314918 59.6678625,18.4520386 54.4917326,23.6383377 C49.4478025,28.7229446 40.3565253,28.7229446 34.112628,31.7076089 C19.9418284,38.4701361 13.4030239,54.4917326 1.65249726,64.3355316 C1.24946675,64.688219 0.813591178,65.0015045 0.350837879,65.2710993 C0.887599632,65.564869 1.49348866,65.7088774 2.10502727,65.6880371 C3.12194866,65.6219372 3.94565499,64.9761921 4.70834603,64.3355316 C16.4639573,54.486648 23.012931,38.4701361 37.1684767,31.7076089 C43.4174587,28.7280292 52.5087359,28.7026062 57.5475814,23.6383377 C64.9558537,16.1944731 56.7391289,6.84896555 61.2237522,0 Z"
                            id="Path"
                            fill="url(#linearGradient-11)"
                    ></path>
                </g>
                <g
                        id="Group"
                        opacity="0.2"
                        transform="translate(49.354530, 72.201419)"
                        fill="url(#linearGradient-12)"
                        fill-rule="nonzero"
                >
                    <path
                            d="M25.5908267,74.5962684 C23.2671614,51.0392845 30.5534031,18.2689927 5.50154471,0.361007093 L0.198299671,0.960990712 C24.2739135,19.0011761 17.1808869,51.2985994 19.4791292,74.6064377 C23.272246,113.06132 24.3298442,140.782597 22.9722542,141.865618 C22.3061707,142.374079 14.6131604,142.607971 4.2456468,142.638479 C17.5825708,142.674071 28.2958376,142.501194 29.0890363,141.865618 C30.4364572,140.772428 29.3788589,113.051151 25.5908267,74.5962684 Z"
                            id="Path"
                    ></path>
                </g>
                <path
                        d="M34.6752699,112.669805 L88.0636428,159.895635 L150.095847,146.792602 L145.245132,132.820103 L97.2006814,138.499608 L49.1053844,96.2973709 C46.7780465,94.2546095 43.6932461,93.2952862 40.6178774,93.6578927 C37.5425088,94.0204992 34.7654216,95.6709783 32.9770112,98.1990139 L32.9770112,98.1990139 C29.7752486,102.751218 30.5065472,108.982584 34.6752699,112.669805 L34.6752699,112.669805 Z"
                        id="Path"
                        fill="url(#linearGradient-13)"
                        fill-rule="nonzero"
                ></path>
                <path
                        d="M150.06534,146.797687 C150.06534,146.797687 165.888637,147.234963 171.735935,138.499608 C177.583233,129.764254 145.245132,132.820103 145.245132,132.820103 L150.06534,146.797687 Z"
                        id="Path"
                        fill="url(#linearGradient-14)"
                        fill-rule="nonzero"
                ></path>
                <rect
                        id="Rectangle"
                        fill="url(#linearGradient-15)"
                        fill-rule="nonzero"
                        x="31.2634986"
                        y="60.7559684"
                        width="23.582407"
                        height="23.582407"
                        rx="10.4081904"
                ></rect>
                <g id="Group" opacity="0.2" transform="translate(35.117631, 213.045031)" fill-rule="nonzero">
                    <polygon
                            id="Path"
                            fill="url(#linearGradient-16)"
                            points="21.0401035 33.3295985 0.0762691041 147.321402 4.88122266 147.321402 24.6654283 39.7463725"
                    ></polygon>
                    <polygon
                            id="Path"
                            fill="url(#linearGradient-17)"
                            points="77.8199093 73.075971 43.3157665 0.137284387 38.536236 0.188130457 73.0149557 73.075971 76.9453569 147.321402 81.7503104 147.321402"
                    ></polygon>
                </g>
                <g
                        id="Group"
                        opacity="0.2"
                        transform="translate(114.437499, 359.990172)"
                        fill="url(#linearGradient-18)"
                        fill-rule="nonzero"
                >
                    <path
                            d="M9.85905286,11.7352728 L2.43552673,0.381345521 L0.24914574,0.381345521 L7.67267188,11.7352728 C7.67267188,11.7352728 32.5719921,21.3553492 21.655341,27.4568775 L23.8366373,27.4568775 C34.7532884,21.3553492 9.85905286,11.7352728 9.85905286,11.7352728 Z"
                            id="Path"
                    ></path>
                </g>
                <g
                        id="Group"
                        opacity="0.2"
                        transform="translate(39.185316, 359.990172)"
                        fill="url(#linearGradient-19)"
                        fill-rule="nonzero"
                >
                    <path
                            d="M9.99125264,11.7352728 L2.56772651,0.381345521 L0.386430128,0.381345521 L7.80995626,11.7352728 C7.80995626,11.7352728 32.7245303,21.3451799 21.7875407,27.4568775 L23.9688371,27.4568775 C34.875319,21.3553492 9.99125264,11.7352728 9.99125264,11.7352728 Z"
                            id="Path"
                    ></path>
                </g>
                <g
                        id="Group"
                        opacity="0.2"
                        transform="translate(107.319049, 132.199780)"
                        fill="url(#linearGradient-20)"
                        fill-rule="nonzero"
                >
                    <polygon id="Path" points="45.85807 2.88805674 44.9275869 0.18304585 0.361007093 5.45069864"></polygon>
                </g>
                <polygon
                        id="Path"
                        fill="url(#linearGradient-21)"
                        fill-rule="nonzero"
                        points="20.4587089 112.15626 35.3006765 84.1248219 60.0322047 93.4703294 35.3006765 129.194778"
                ></polygon>
                <path
                        d="M51.2460039,105.805586 L103.154756,151.739925 L163.473448,138.9979 L158.800695,125.406746 L112.073157,130.928629 L65.2947729,89.8653431 C63.0311341,87.8786549 60.030802,86.9458024 57.0397419,87.2987184 C54.0486818,87.6516344 51.3478546,89.2571683 49.6087605,91.71614 L49.6087605,91.71614 C46.4817135,96.1429588 47.1871659,102.213792 51.2460039,105.805586 L51.2460039,105.805586 Z"
                        id="Path"
                        fill="#CA7070"
                        fill-rule="nonzero"
                ></path>
                <path
                        d="M163.473448,138.992815 C163.473448,138.992815 178.864554,139.419922 184.549144,130.923544 C190.233735,122.427166 158.800695,125.401661 158.800695,125.401661 L163.473448,138.992815 Z"
                        id="Path"
                        fill="#CA7070"
                        fill-rule="nonzero"
                ></path>
                <circle
                        id="Oval"
                        fill="#CA7070"
                        fill-rule="nonzero"
                        cx="44.4326306"
                        cy="49.1071338"
                        r="26.7602863"
                ></circle>
                <path
                        d="M33.3837797,78.4148083 C33.3837797,78.4148083 -0.988163219,101.559939 7.7421069,173.110528 C8.80504005,181.755098 8.35453773,188.679124 6.43671803,197.070464 C4.62002946,205.884511 3.71168518,211.361904 3.71168518,213.502646 C3.71168518,213.50773 6.84337534,214.002356 7.7421069,214.002356 C9.58043939,214.002356 77.0186442,214.95812 78.8401658,213.502646 C80.157079,212.450132 79.1299884,185.486461 75.4436483,148.084093 C73.1860829,125.172854 80.2689403,93.2974528 55.9035039,75.882674 C40.8903544,77.5707635 33.3837797,78.4148083 33.3837797,78.4148083 Z"
                        id="Path"
                        fill="#0050D8"
                        fill-rule="nonzero"
                ></path>
                <path
                        d="M112.398572,283.588868 L116.217111,355.800455 L92.4313201,355.800455 L82.2366832,281.04148 L61.8474094,244.930601 L41.4581355,355.800455 L17.6672597,355.800455 L24.8874015,273.394231 L7.81192189,228.978493 C5.07843075,221.80925 3.71168518,216.642408 3.71168518,213.477966 C3.71168518,213.477966 4.73048217,213.461108 6.76807616,213.427392 L78.8401658,212.648432 L112.398572,283.588868 Z"
                        id="Path"
                        fill="#162E51"
                        fill-rule="nonzero"
                ></path>
                <path
                        d="M116.222196,355.800455 L123.442338,366.844222 C123.442338,366.844222 147.655236,376.189729 137.033492,382.138719 L90.7330614,382.138719 L90.7330614,355.800455 L116.222196,355.800455 Z"
                        id="Path"
                        fill="#263238"
                        fill-rule="nonzero"
                ></path>
                <path
                        d="M41.0106901,355.800455 L48.230832,366.844222 C48.230832,366.844222 72.4437302,376.189729 61.8219863,382.138719 L15.5469786,382.138719 L15.5469786,355.800455 L41.0106901,355.800455 Z"
                        id="Path"
                        fill="#263238"
                        fill-rule="nonzero"
                ></path>
                <path
                        d="M44.8597376,21.9197405 C40.2375796,21.9150956 35.6938135,23.1136826 31.6753518,25.3976117 C44.7035338,19.8504385 59.7979789,25.4126153 66.1116347,38.0870939 C72.4252904,50.7615725 67.7724649,66.1606406 55.4967353,73.21834 C67.1306948,68.17028 73.6249833,55.6505162 71.0510735,43.2325087 C68.4771637,30.8145012 57.5416877,21.9074459 44.8597376,21.8994021 L44.8597376,21.9197405 Z"
                        id="Path"
                        fill="#FFFFFF"
                        fill-rule="nonzero"
                        opacity="0.2"
                ></path>
                <path
                        d="M76.9639458,5.30832965 L69.5200812,16.6927646 C66.845578,20.7604501 62.9609383,25.4230347 58.1661539,24.4772978 C55.9289269,24.034937 54.1442299,22.443455 52.3595328,21.0045113 C46.5122348,16.3673497 39.292093,13.219978 31.8583976,13.1742166 C24.4247023,13.1284551 16.7723688,16.4893803 12.5368912,22.6417547 C9.43019641,27.1823087 8.35734434,32.8109686 7.73702229,38.2667518 C6.50654741,49.2037414 7.73702229,62.118643 16.8893148,68.2659328 C17.6267499,68.851284 18.536043,69.1782008 19.4773797,69.1964159 C20.443455,69.130316 21.2671614,68.5049093 22.0196832,67.8795027 C33.4498796,58.3051878 39.8158075,42.7208675 53.5950923,36.1464708 C59.6711976,33.2482448 68.5133291,33.2228218 73.4250594,28.3009222 C80.5994398,21.060442 72.6064377,11.9691647 76.9639458,5.30832965 Z"
                        id="Path"
                        fill="#263238"
                        fill-rule="nonzero"
                ></path>
                <g id="Group" opacity="0.2" transform="translate(17.321506, 5.084607)" fill="#FFFFFF" fill-rule="nonzero">
                    <path
                            d="M32.0584468,15.9199043 C33.8431438,17.3385097 35.6176716,18.9706685 37.8650679,19.3926909 C38.7749845,19.5736975 39.7132345,19.5563546 40.6158403,19.3418448 C38.4853899,18.8333841 36.7566236,17.308002 35.0227726,15.9249889 C29.1907285,11.2827428 21.9705866,8.13537111 14.5368912,8.08960965 C14.0284306,8.08960965 13.4945468,8.08960965 12.9708323,8.13537111 C19.9011516,8.53705506 26.5874097,11.5725654 32.0584468,15.9199043 Z"
                            id="Path"
                    ></path>
                    <path
                            d="M59.6424394,0.223722705 L55.340862,6.79811948 C55.7476305,12.2030567 58.1272266,18.1571314 53.0883811,23.2163153 C48.1817354,28.1382148 39.3599423,28.1636379 33.258414,31.0618638 C19.4740446,37.6362606 13.1182859,53.2205809 1.6830049,62.7948957 C1.29109668,63.1381141 0.867127476,63.4428952 0.416937769,63.7050404 C0.937995154,63.9908553 1.52630362,64.1313469 2.12028109,64.1118089 C3.08635641,64.045709 3.91006274,63.4203024 4.66258457,62.7948957 C16.092781,53.2205809 22.4587089,37.6362606 36.2379937,31.0618638 C42.314099,28.1636379 51.1562304,28.1382148 56.0679608,23.2163153 C63.2779334,15.975835 55.2849313,6.8845578 59.6424394,0.223722705 Z"
                            id="Path"
                    ></path>
                </g>
                <path
                        d="M75.4436483,148.079008 C73.1860829,125.167769 80.2689403,93.2923682 55.9035039,75.8775894 L50.7477124,76.4623192 C74.1623274,94.0092978 67.2625158,125.432169 69.4997428,148.094262 C73.1860829,185.49663 74.2131735,212.460301 72.8962603,213.512815 C72.2505152,214.021275 64.7608892,214.234829 54.6831982,214.265337 C67.6591151,214.300929 78.0723901,214.128052 78.8452504,213.512815 C80.1621636,212.445047 79.1452422,185.486461 75.4436483,148.079008 Z"
                        id="Path"
                        fill="#FFFFFF"
                        fill-rule="nonzero"
                        opacity="0.2"
                ></path>
                <path
                        d="M36.2769211,114.912117 L88.1856733,160.826118 L148.504365,148.084093 L143.831612,134.492938 L97.1040739,140.014821 L50.32569,98.9515357 C48.0620513,96.9648475 45.0617192,96.031995 42.0706591,96.384911 C39.0795989,96.737827 36.3787718,98.3433609 34.6396776,100.802333 L34.6396776,100.802333 C31.500251,105.233101 32.2063153,111.317972 36.2769211,114.912117 L36.2769211,114.912117 Z"
                        id="Path"
                        fill="#CA7070"
                        fill-rule="nonzero"
                ></path>
                <path
                        d="M148.504365,148.079008 C148.504365,148.079008 163.895471,148.506115 169.580061,140.009737 C175.264652,131.513359 143.831612,134.487854 143.831612,134.487854 L148.504365,148.079008 Z"
                        id="Path"
                        fill="#CA7070"
                        fill-rule="nonzero"
                ></path>
                <rect
                        id="Rectangle"
                        fill="#CA7070"
                        fill-rule="nonzero"
                        x="32.9617573"
                        y="64.3965469"
                        width="22.9366619"
                        height="22.9366619"
                        rx="10.4081904"
                ></rect>
                <g
                        id="Group"
                        opacity="0.2"
                        transform="translate(36.643013, 212.536570)"
                        fill="#FFFFFF"
                        fill-rule="nonzero"
                >
                    <polygon
                            id="Path"
                            points="20.5316428 32.3940308 0.142368994 143.263885 4.81512277 143.263885 24.0552754 38.6379282"
                    ></polygon>
                    <polygon
                            id="Path"
                            points="75.7555588 71.0522974 42.197153 0.111861353 37.5447377 0.162707422 71.0828051 71.0522974 74.9013449 143.263885 79.5740986 143.263885"
                    ></polygon>
                </g>
                <path
                        d="M123.442338,366.849306 L116.222196,355.80554 L114.09683,355.80554 L121.316972,366.849306 C121.316972,366.849306 145.52987,376.194814 134.908127,382.143804 L137.033492,382.143804 C147.655236,376.194814 123.442338,366.849306 123.442338,366.849306 Z"
                        id="Path"
                        fill="#FFFFFF"
                        fill-rule="nonzero"
                        opacity="0.2"
                ></path>
                <path
                        d="M50.3816207,366.849306 L43.1614789,355.80554 L41.0106901,355.80554 L48.230832,366.849306 C48.230832,366.849306 72.4437302,376.194814 61.8219863,382.143804 L63.947352,382.143804 C74.5690959,376.194814 50.3816207,366.849306 50.3816207,366.849306 Z"
                        id="Path"
                        fill="#FFFFFF"
                        fill-rule="nonzero"
                        opacity="0.2"
                ></path>
                <polygon
                        id="Path"
                        fill="#FFFFFF"
                        fill-rule="nonzero"
                        opacity="0.2"
                        points="151.529707 136.694573 150.629731 134.065831 107.283457 139.18603"
                ></polygon>
                <polygon
                        id="Path"
                        fill="#0050D8"
                        fill-rule="nonzero"
                        points="22.4518748 114.388402 36.8819893 87.1298246 60.9372647 96.2160172 36.8819893 130.959136"
                ></polygon>
                <path
                        d="M233.330863,145.094344 L277.058483,85.6349501 C277.458473,85.090795 278.058539,84.728152 278.726276,84.6270375 C279.394013,84.525923 280.074543,84.6946473 280.617708,85.0959818 L282.65155,86.5959408 C283.195706,86.9959314 283.558349,87.5959968 283.659463,88.2637341 C283.760578,88.9314714 283.591853,89.612001 283.190519,90.1551657 L239.462899,149.614559 L233.330863,145.094344 Z"
                        id="Path"
                        fill="url(#linearGradient-22)"
                        fill-rule="nonzero"
                ></path>
                <path
                        d="M234.200331,145.72992 L277.185598,87.2569397 C277.585589,86.7127846 278.185654,86.3501416 278.853391,86.2490271 C279.521129,86.1479126 280.201658,86.3166369 280.744823,86.7179714 L280.953292,86.8705096 C281.497447,87.2705002 281.86009,87.8705656 281.961204,88.5383029 C282.062319,89.2060402 281.893595,89.8865698 281.49226,90.4297345 L238.506993,148.902714 L234.200331,145.72992 Z"
                        id="Path"
                        fill="#B0BEC5"
                        fill-rule="nonzero"
                ></path>
            </g>
        </g>
    </g>
</svg>