<?xml version="1.0" encoding="UTF-8" standalone="no"?>
<svg width="102px" height="45px" viewBox="0 0 102 45" version="1.1" xmlns="http://www.w3.org/2000/svg" xmlns:xlink="http://www.w3.org/1999/xlink">
    <!-- Generator: Sketch 49 (51002) - http://www.bohemiancoding.com/sketch -->
    <title>Car-gray</title>
    <desc>Created with Sketch.</desc>
    <defs></defs>
    <g id="Car-gray" stroke="none" stroke-width="1" fill="none" fill-rule="evenodd">
        <g id="car-with-trailer" transform="translate(51.000000, 22.500000) scale(-1, 1) translate(-51.000000, -22.500000) " fill="#8E8E8E" fill-rule="nonzero">
            <g id="Group">
                <path d="M40.6104496,0.23667 C55.0331492,0.24045 55.0219355,0.24045 75.4140665,0.24423 L101.521452,17.85147 L101.519583,35.45682 L93.8737016,41.33661 C94.8960181,39.61104 95.482869,37.59063 95.482869,35.43414 C95.482869,29.08752 90.3974516,23.93916 84.12525,23.93916 C77.8549173,23.93916 72.767631,29.08752 72.767631,35.43414 C72.767631,37.59063 73.3563508,39.61104 74.3805363,41.33661 L30.2620645,41.33661 C31.2638226,39.60348 31.8375907,37.58496 31.8375907,35.43414 C31.8375907,28.97034 26.6587258,23.73315 20.2743871,23.73315 C13.8900484,23.73315 8.71118347,28.97034 8.71118347,35.43414 C8.71118347,37.58496 9.28682056,39.60348 10.2885786,41.33661 L0,35.38689 L0,21.11739 L0,17.85525 L26.109254,14.91441 L40.6104496,0.23667 Z M43.5091935,3.17184 L31.9086109,14.91819 L58.0122581,14.91819 L58.0122581,3.17562 L43.5091935,3.17184 Z M60.8904435,3.17562 L60.8904435,14.91819 L84.1532843,14.91819 L72.5508327,3.1794 L60.8904435,3.17562 Z" id="Shape"></path>
            </g>
            <path d="M20.4981736,27 C25.1919854,27 29,31.0283505 29,36 C29,40.9716495 25.1919854,45 20.4981736,45 C15.8043618,45 12,40.9716495 12,36 C12,31.0283505 15.8043618,27 20.4981736,27 Z M20.4981736,31.8034794 C18.3101633,31.8034794 16.538569,33.6804124 16.538569,36 C16.538569,38.3176546 18.3119897,40.1945876 20.4981736,40.1945876 C22.6880103,40.1945876 24.4596046,38.3176546 24.4596046,36 C24.461431,33.6804124 22.6880103,31.8034794 20.4981736,31.8034794 Z" id="Shape"></path>
            <path d="M83.4990867,27 C88.1934028,27 92,31.0283505 92,36 C92,40.9716495 88.1934028,45 83.4990867,45 C78.8047706,45 75,40.9716495 75,36 C75,31.0283505 78.8047706,27 83.4990867,27 Z M83.4990867,31.8034794 C81.3126679,31.8034794 79.53723,33.6804124 79.53723,36 C79.53723,38.3176546 81.3126679,40.1945876 83.4990867,40.1945876 C85.6873321,40.1945876 87.46277,38.3176546 87.46277,36 C87.46277,33.6804124 85.6873321,31.8034794 83.4990867,31.8034794 Z" id="Shape"></path>
        </g>
    </g>
</svg>