<?xml version="1.0" encoding="UTF-8"?>
<svg width="24px" height="24px" viewBox="0 0 24 24" version="1.1" xmlns="http://www.w3.org/2000/svg"
  xmlns:xlink="http://www.w3.org/1999/xlink">
  <path
    d="M17.6776391,7 L10.4692144,14.2084246 L6.54231847,10.2924671 L5,11.8347856 L10.4692144,17.304 L19.2199575,8.5532569 L17.6776391,7 Z M12,0 C5.376,0 0,5.376 0,12 C0,18.624 5.376,24 12,24 C18.624,24 24,18.624 24,12 C24,5.376 18.624,0 12,0 Z M12,21.6 C6.696,21.6 2.4,17.304 2.4,12 C2.4,6.696 6.696,2.4 12,2.4 C17.304,2.4 21.6,6.696 21.6,12 C21.6,17.304 17.304,21.6 12,21.6 Z"
    id="accept-1" />
</svg>