<?xml version="1.0" encoding="UTF-8"?>
<svg width="24px" height="24px" viewBox="0 0 24 24" version="1.1" xmlns="http://www.w3.org/2000/svg"
  xmlns:xlink="http://www.w3.org/1999/xlink">
  <path
    d="M 17.7 7 L 10.5 14.2 L 6.5 10.3 L 5 11.8 L 10.5 17.3 L 19.2 8.6 L 17.7 7 Z M 12 0 C 5.4 0 0 5.4 0 12 C 0 18.6 5.4 24 12 24 C 18.6 24 24 18.6 24 12 C 24 5.4 18.6 0 12 0 Z M 12 21.6 C 6.7 21.6 2.4 17.3 2.4 12 C 2.4 6.7 6.7 2.4 12 2.4 C 17.3 2.4 21.6 6.7 21.6 12 C 21.6 17.3 17.3 21.6 12 21.6 Z" />
</svg>