<?xml version="1.0" encoding="UTF-8"?>
<svg width="15px" height="16px" viewBox="0 0 15 16" version="1.1" xmlns="http://www.w3.org/2000/svg" xmlns:xlink="http://www.w3.org/1999/xlink">
        <path d="M14.2561051,6.06338502 C14.0632477,5.87052762 13.8290546,5.77416232 13.5535259,5.77416232 L9.25601392,5.77416232 L9.25601392,1.47652351 C9.25601392,1.20112162 9.15952182,0.966928581 8.96679122,0.774071183 C8.77393382,0.581340582 8.53986758,0.484848485 8.2642121,0.484848485 L6.28086206,0.484848485 C6.00546017,0.484848485 5.77126713,0.581213785 5.57840973,0.774071183 C5.38555234,0.966928581 5.28918704,1.20112162 5.28918704,1.47652351 L5.28918704,5.77416232 L0.991675021,5.77416232 C0.716273135,5.77416232 0.482080096,5.87052762 0.289222698,6.06338502 C0.0963653006,6.25624241 0,6.49030866 0,6.76583734 L0,8.74944097 C0,9.02496965 0.0963653006,9.2590359 0.289222698,9.4517665 C0.482080096,9.6446239 0.716273135,9.7409892 0.991675021,9.7409892 L5.28918704,9.7409892 L5.28918704,14.0387548 C5.28918704,14.3141567 5.38555234,14.5484765 5.57840973,14.7412071 C5.77126713,14.9339377 6.00546017,15.030303 6.28086206,15.030303 L8.2643389,15.030303 C8.53999437,15.030303 8.77406062,14.9339377 8.96691801,14.7412071 C9.15977541,14.5483497 9.25614071,14.3141567 9.25614071,14.0387548 L9.25614071,9.7409892 L13.5536527,9.7409892 C13.8291814,9.7409892 14.0633744,9.6446239 14.2562318,9.4517665 C14.4489624,9.2590359 14.5454545,9.02496965 14.5454545,8.74944097 L14.5454545,6.76583734 C14.5453277,6.49030866 14.4490892,6.25611562 14.2561051,6.06338502 L14.2561051,6.06338502 Z" id="add-1" />
</svg>
