<?xml version="1.0" encoding="UTF-8"?>
<svg width="4px" height="16px" viewBox="0 0 4 16" version="1.1" xmlns="http://www.w3.org/2000/svg" xmlns:xlink="http://www.w3.org/1999/xlink">
                <path d="M4,15.484375 L4,12.515625 C4,12.234375 3.78125,12 3.515625,12 L0.515625,12 C0.234375,12 0,12.234375 0,12.515625 L0,15.484375 C0,15.765625 0.234375,16 0.515625,16 L3.515625,16 C3.78125,16 4,15.765625 4,15.484375 Z" id="alert-1" />
                <path d="M3.75,10.5907738 L4,0.425595238 C4,0.311011905 3.95833333,0.196428571 3.86111111,0.130952381 C3.77777778,0.0491071429 3.65277778,0 3.52777778,0 L0.472222222,0 C0.347222222,0 0.222222222,0.0491071429 0.138888889,0.130952381 C0.0416666667,0.196428571 0,0.311011905 0,0.425595238 L0.236111111,10.5907738 C0.236111111,10.8199405 0.444444444,11 0.708333333,11 L3.27777778,11 C3.52777778,11 3.73611111,10.8199405 3.75,10.5907738 Z" id="alert-2" />
</svg>
