<?xml version="1.0" encoding="UTF-8"?>
<svg width="26px" height="25px" viewBox="0 0 26 25" version="1.1" xmlns="http://www.w3.org/2000/svg" xmlns:xlink="http://www.w3.org/1999/xlink">
    <title>Checkbox/Elements/checkbox--unchecked</title>
    <g id="TOO-workflow" stroke="none" stroke-width="1" fill="none" fill-rule="evenodd">
        <g id="Move-details---Approved-Shipments" transform="translate(-829.000000, -380.000000)">
            <g id="Shipments" transform="translate(273.000000, 299.000000)">
                <g id="Group-7" transform="translate(38.000000, 61.000000)">
                    <g id="Group-8-Copy-8" transform="translate(504.000000, 0.000000)">
                        <g id="Group-5" transform="translate(0.000000, 20.000000)">
                            <g id="Group" transform="translate(14.815831, 0.000000)">
                                <g id="check_circle-24px" transform="translate(0.725153, 0.131148)">
                                    <polygon id="Path" points="0 0 24 0 24 24 0 24"></polygon>
                                    <path d="M12,2 C6.48,2 2,6.48 2,12 C2,17.52 6.48,22 12,22 C17.52,22 22,17.52 22,12 C22,6.48 17.52,2 12,2 Z M12,20 C7.59,20 4,16.41 4,12 C4,7.59 7.59,4 12,4 C16.41,4 20,7.59 20,12 C20,16.41 16.41,20 12,20 Z M16.59,7.58 L10,14.17 L7.41,11.59 L6,13 L10,17 L18,9 L16.59,7.58 Z" id="Shape" fill="#0CA900" fill-rule="nonzero"></path>
                                </g>
                            </g>
                        </g>
                    </g>
                </g>
            </g>
        </g>
    </g>
</svg>