<?xml version="1.0" encoding="UTF-8"?>
<svg width="12px" height="16px" viewBox="0 0 12 16" version="1.1" xmlns="http://www.w3.org/2000/svg" xmlns:xlink="http://www.w3.org/1999/xlink">
            <path d="M0.774193548,3.05128205 C1.20154839,3.05128205 1.5483871,3.41887179 1.5483871,3.87179487 L1.5483871,15.3589744 L9.29032258,15.3589744 C9.71845161,15.3589744 10.0645161,15.7257436 10.0645161,16.1794872 C10.0645161,16.6332308 9.71845161,17 9.29032258,17 L0.774193548,17 C0.34683871,17 -1.15463195e-14,16.6332308 -1.15463195e-14,16.1794872 L-1.15463195e-14,3.87179487 C-1.15463195e-14,3.41887179 0.34683871,3.05128205 0.774193548,3.05128205 Z M8.90322581,1 L8.90322581,4.69230769 L12,4.69230769 L12,13.7179487 C12,13.9444103 11.8265806,14.1282051 11.6129032,14.1282051 L11.6129032,14.1282051 L3.09677419,14.1282051 C2.88309677,14.1282051 2.70967742,13.9444103 2.70967742,13.7179487 L2.70967742,13.7179487 L2.70967742,1.41025641 C2.70967742,1.18379487 2.88309677,1 3.09677419,1 L3.09677419,1 L8.90322581,1 Z M9.67741935,1.10937436 L11.9295484,3.87204103 L9.67741935,3.87204103 L9.67741935,1.10937436 Z" id="documents-1" />
</svg>
