<?xml version="1.0" encoding="UTF-8"?>
<svg width="22px" height="21px" version="1.1" xmlns="http://www.w3.org/2000/svg" xmlns:xlink="http://www.w3.org/1999/xlink">
  <path d="M15.932322,4.9309773 L4.37690112,15.8415644 L2.55324047,22.1551754 L9.12597017,20.4626441 L20.6704052,9.56242983 C21.5404514,8.74093534 21.8843572,7.52908406 21.5617322,6.39222193 C21.2427186,5.26808497 20.3245449,4.40114869 19.1624752,4.10714891 C18.0121491,3.81612023 16.7839827,4.12684226 15.932322,4.9309773 Z M18.6719373,6.04605907 C19.1521147,6.16754236 19.516682,6.5117655 19.6377071,6.93823224 L19.6678942,7.07699925 C19.7246576,7.44874209 19.592604,7.82944459 19.2973488,8.10822348 L8.127,18.654 L5.446,19.344 L6.146,16.921 L17.3053785,6.38518362 C17.6208713,6.08729644 18.0769338,5.95010727 18.5236017,6.01637553 L18.6719373,6.04605907 Z" id="edit-2" />
</svg>
