<?xml version="1.0" encoding="UTF-8"?>
<svg width="20px" height="18px" viewBox="0 0 20 18" version="1.1" xmlns="http://www.w3.org/2000/svg" xmlns:xlink="http://www.w3.org/1999/xlink">
        <path d="M13.9532981,0.875169095 L2.38745809,11.1889036 L0.530201754,17.2616068 L7.10599283,15.6623606 L18.6494291,5.36860431 C19.5358985,4.57810321 19.8911815,3.39571309 19.5574196,2.28494601 C19.2316087,1.20063947 18.3072285,0.376331684 17.1496055,0.0997277313 C16.0145319,-0.171488249 14.80217,0.118195097 13.9532981,0.875169095 Z M16.684807,2.0449687 C17.1694311,2.16076541 17.5277919,2.48033042 17.6420196,2.86048291 L17.6693043,2.97918932 C17.7204238,3.29743961 17.5989817,3.62562836 17.3183248,3.8759016 L6.147,13.837 L3.47,14.488 L4.136,12.308 L15.2844024,2.36787178 C15.6024051,2.0842957 16.0715203,1.95144548 16.5318927,2.01605483 L16.684807,2.0449687 Z" id="edit-3" />
</svg>
