<?xml version="1.0" encoding="UTF-8"?>
<svg width="16px" height="16px" viewBox="0 0 16 16" version="1.1" xmlns="http://www.w3.org/2000/svg" xmlns:xlink="http://www.w3.org/1999/xlink">
        <path d="M7.06765432,2.51851852 C7.5585741,2.51851852 7.95654321,2.91648763 7.95654321,3.40740741 C7.95654321,3.86326149 7.61339637,4.23896933 7.17131754,4.29031609 L7.06765432,4.2962963 L2.43358025,4.2962963 C2.10157302,4.2962963 1.82718947,4.54301258 1.78376448,4.86311026 L1.77777778,4.95209877 L1.77777778,13.4479012 C1.77777778,13.7799085 2.02449406,14.054292 2.34459174,14.097717 L2.43358025,14.1037037 L10.9293827,14.1037037 C11.2613899,14.1037037 11.5357735,13.8569874 11.5791985,13.5368897 L11.5851852,13.4479012 L11.5851852,8.81382716 C11.5851852,8.32290738 11.9831543,7.92493827 12.4740741,7.92493827 C12.9299282,7.92493827 13.305636,8.26808511 13.3569828,8.71016394 L13.362963,8.81382716 L13.362963,13.4479012 C13.362963,14.7421516 12.3526249,15.8004249 11.0776296,15.8770402 L10.9293827,15.8814815 L2.43358025,15.8814815 C1.13932985,15.8814815 0.0810565592,14.8711434 0.00444132284,13.5961482 L6.21724894e-15,13.4479012 L6.21724894e-15,4.95209877 C6.21724894e-15,3.65784837 1.01033809,2.59957508 2.28533332,2.52295984 L2.43358025,2.51851852 L7.06765432,2.51851852 Z M10.355596,0.00598020562 L10.4592593,5.06261699e-14 L14.9925926,5.06261699e-14 L15.0591409,0.00245358708 L15.1728113,0.0183592706 L15.2963996,0.0532801645 L15.3941021,0.0956298478 L15.4581926,0.131459092 L15.5410958,0.189299654 L15.621195,0.260399366 L15.6687025,0.3117596 L15.7307701,0.393516843 L15.7725899,0.462111214 L15.8127687,0.545595604 L15.8496191,0.652450697 L15.8682916,0.735836102 L15.8810219,0.860218119 L15.8814815,5.42222222 C15.8814815,5.913142 15.4835124,6.31111111 14.9925926,6.31111111 C14.5367385,6.31111111 14.1610307,5.96796428 14.1096839,5.52588544 L14.1037037,5.42222222 L14.1031111,3.03466667 L7.05816899,10.0803912 C6.71103629,10.4275239 6.14822297,10.4275239 5.80109027,10.0803912 C5.48066008,9.75996102 5.4560116,9.25575564 5.72714484,8.90705235 L5.80109027,8.82331249 L12.8453333,1.77777778 L10.4592593,1.77777778 C10.0034052,1.77777778 9.62769734,1.43463094 9.57635058,0.992552111 L9.57037037,0.888888889 C9.57037037,0.43303481 9.91351721,0.0573269683 10.355596,0.00598020562 Z" id="ex-link-1" />
</svg>
