<?xml version="1.0" encoding="UTF-8"?>
<svg width="12px" height="9px" viewBox="0 0 12 9" version="1.1" xmlns="http://www.w3.org/2000/svg" xmlns:xlink="http://www.w3.org/1999/xlink">
        <path d="M12,1.66304348 C12,1.85869565 11.9008264,2.05434783 11.8016529,2.15217391 L6.14876033,7.72826087 L5.05785124,8.80434783 C4.95867769,8.90217391 4.76033058,9 4.56198347,9 C4.36363636,9 4.16528926,8.90217391 4.0661157,8.80434783 L2.97520661,7.72826087 L0.198347107,4.98913043 C0.0991735537,4.89130435 0,4.69565217 0,4.5 C0,4.30434783 0.0991735537,4.10869565 0.198347107,4.01086957 L1.2892562,2.93478261 C1.38842975,2.83695652 1.58677686,2.73913043 1.78512397,2.73913043 C1.98347107,2.73913043 2.18181818,2.83695652 2.28099174,2.93478261 L4.56198347,5.18478261 L9.61983471,0.195652174 C9.71900826,0.097826087 9.91735537,0 10.1157025,0 C10.3140496,0 10.5123967,0.097826087 10.6115702,0.195652174 L11.7024793,1.27173913 C11.9008264,1.36956522 12,1.4673913 12,1.66304348 L12,1.66304348 Z" id="f-check-1" />
</svg>
