<?xml version="1.0" encoding="UTF-8"?>
<svg width="10px" height="14px" viewBox="0 0 10 14" version="1.1" xmlns="http://www.w3.org/2000/svg" xmlns:xlink="http://www.w3.org/1999/xlink">
            <path d="M9.3452381,8.02738095 C9.51333333,8.02738095 9.65892857,8.08869048 9.78166667,8.21154762 C9.90440476,8.33440476 9.96607143,8.47988095 9.96607143,8.64797619 C9.96607143,8.81607143 9.90440476,8.96166667 9.78166667,9.08440476 L9.78166667,9.08440476 L5.43642857,13.4296429 C5.31369048,13.5525 5.16809524,13.6140476 5,13.6140476 C4.83190476,13.6140476 4.68642857,13.5525 4.56345238,13.4296429 L4.56345238,13.4296429 L0.218214286,9.08440476 C0.0953571429,8.96166667 0.0339285714,8.81607143 0.0339285714,8.64797619 C0.0339285714,8.47988095 0.0953571429,8.33440476 0.218214286,8.21154762 C0.341071429,8.08880952 0.486547619,8.02738095 0.654761905,8.02738095 L0.654761905,8.02738095 Z M5,-0.0426190476 C5.16821429,-0.0426190476 5.31369048,0.0189285714 5.43642857,0.141666667 L5.43642857,0.141666667 L9.78166667,4.48690476 C9.90440476,4.60988095 9.96607143,4.75535714 9.96607143,4.92345238 C9.96607143,5.09154762 9.90440476,5.23702381 9.78166667,5.35988095 C9.65892857,5.4827381 9.51333333,5.54416667 9.3452381,5.54416667 L9.3452381,5.54416667 L0.654761905,5.54416667 C0.486666667,5.54416667 0.341190476,5.4827381 0.218214286,5.35988095 C0.0953571429,5.23702381 0.0339285714,5.09154762 0.0339285714,4.92345238 C0.0339285714,4.75535714 0.0953571429,4.6097619 0.218214286,4.48690476 L0.218214286,4.48690476 L4.56345238,0.141666667 C4.68630952,0.0189285714 4.83178571,-0.0426190476 5,-0.0426190476 Z" id="form-double-carat" />
</svg>
