<?xml version="1.0" encoding="UTF-8" standalone="no"?>
<svg width="250px" height="44px" viewBox="0 0 250 44" version="1.1" xmlns="http://www.w3.org/2000/svg" xmlns:xlink="http://www.w3.org/1999/xlink">
    <!-- Generator: Sketch 49.1 (51147) - http://www.bohemiancoding.com/sketch -->
    <title>Group 4</title>
    <desc>Created with Sketch.</desc>
    <defs>
        <rect id="path-1" x="85" y="0" width="11" height="22.1073171"></rect>
    </defs>
    <g id="Move-Type-&amp;-Addresses" stroke="none" stroke-width="1" fill="none" fill-rule="evenodd">
        <g id="01--Move-type--Desktop" transform="translate(-105.000000, -272.000000)">
            <g id="Group-6" transform="translate(82.000000, 162.000000)">
                <g id="Group-4" transform="translate(23.000000, 110.000000)">
                    <g id="car-with-trailer-copy" transform="translate(200.000000, 22.029268) scale(-1, 1) translate(-200.000000, -22.029268) translate(150.000000, 6.029268)">
                        <g id="Group" transform="translate(0.000000, 6.029268)">
                            <path d="M21.729,1.91228293 C29.446,1.91429268 29.44,1.91429268 40.351,1.91630244 L54.32,11.2777463 L54.319,20.6381854 L50.228,23.764361 C50.775,22.8469073 51.089,21.7726927 51.089,20.6261268 C51.089,17.2517463 48.368,14.5144585 45.012,14.5144585 C41.657,14.5144585 38.935,17.2517463 38.935,20.6261268 C38.935,21.7726927 39.25,22.8469073 39.798,23.764361 L16.192,23.764361 C16.728,22.8428878 17.035,21.769678 17.035,20.6261268 C17.035,17.1894439 14.264,14.4049268 10.848,14.4049268 C7.432,14.4049268 4.661,17.1894439 4.661,20.6261268 C4.661,21.769678 4.969,22.8428878 5.505,23.764361 L0,20.6010049 L0,13.0141756 L0,11.2797561 L13.97,9.71616585 L21.729,1.91228293 Z M23.28,3.47285854 L17.073,9.71817561 L31.04,9.71817561 L31.04,3.47486829 L23.28,3.47285854 Z M32.58,3.47486829 L32.58,9.71817561 L45.027,9.71817561 L38.819,3.47687805 L32.58,3.47486829 Z" id="Shape" fill="#8E8E8E" fill-rule="nonzero"></path>
                            <g id="Rectangle">
                                <use fill="#8E8E8E" fill-rule="evenodd" xlink:href="#path-1"></use>
                                <rect stroke="#8E8E8E" stroke-width="1" x="85.5" y="0.5" width="10" height="21.1073171"></rect>
                            </g>
                            <polygon id="Path-2" stroke="#8E8E8E" fill="#8E8E8E" points="84 12.0585366 61 12.0585366 61 6.57738359 67.2727273 0 84 0"></polygon>
                        </g>
                        <path d="M10.848,21.9776878 C13.418,21.9776878 15.503,24.0718537 15.503,26.6564 C15.503,29.2409463 13.418,31.3351122 10.848,31.3351122 C8.278,31.3351122 6.195,29.2409463 6.195,26.6564 C6.195,24.0718537 8.278,21.9776878 10.848,21.9776878 Z M10.848,24.4748098 C9.65,24.4748098 8.68,25.4505463 8.68,26.6564 C8.68,27.8612488 9.651,28.8369854 10.848,28.8369854 C12.047,28.8369854 13.017,27.8612488 13.017,26.6564 C13.018,25.4505463 12.047,24.4748098 10.848,24.4748098 Z" id="Shape" fill="#8E8E8E" fill-rule="nonzero"></path>
                        <path d="M45.012,21.9776878 C47.582,21.9776878 49.666,24.0718537 49.666,26.6564 C49.666,29.2409463 47.582,31.3351122 45.012,31.3351122 C42.442,31.3351122 40.359,29.2409463 40.359,26.6564 C40.359,24.0718537 42.442,21.9776878 45.012,21.9776878 Z M45.012,24.4748098 C43.815,24.4748098 42.843,25.4505463 42.843,26.6564 C42.843,27.8612488 43.815,28.8369854 45.012,28.8369854 C46.21,28.8369854 47.182,27.8612488 47.182,26.6564 C47.182,25.4505463 46.21,24.4748098 45.012,24.4748098 Z" id="Shape" fill="#8E8E8E" fill-rule="nonzero"></path>
                        <path d="M76.037,21.9776878 C78.606,21.9776878 80.691,24.0718537 80.691,26.6564 C80.691,29.2409463 78.606,31.3351122 76.037,31.3351122 C73.467,31.3351122 71.385,29.2409463 71.385,26.6564 C71.385,24.0718537 73.467,21.9776878 76.037,21.9776878 Z M76.037,24.4748098 C74.839,24.4748098 73.868,25.4505463 73.868,26.6564 C73.868,27.8612488 74.839,28.8369854 76.037,28.8369854 C77.234,28.8369854 78.206,27.8612488 78.206,26.6564 C78.206,25.4505463 77.234,24.4748098 76.037,24.4748098 Z" id="Shape" fill="#8E8E8E" fill-rule="nonzero"></path>
                        <path d="M53.852,23.7271805 L52.792,23.7271805 C52.581,23.7271805 52.408,23.9000195 52.408,24.1120488 L52.408,26.846322 C52.408,27.0593561 52.581,27.2311902 52.792,27.2311902 L61.316,27.2311902 L61.316,25.2264585 L54.618,25.2264585 C54.407,25.2264585 54.235,25.0516098 54.235,24.8405854 L54.235,24.1120488 C54.235,23.9000195 54.063,23.7271805 53.852,23.7271805 Z" id="Shape" fill="#8E8E8E" fill-rule="nonzero"></path>
                        <path d="M89.738,0.820985366 C85.43,0.822995122 80.448,0.822995122 75.524,0.822995122 C64.853,0.824 56.153,9.57447805 56.153,20.303561 L56.153,26.2052098 C56.153,28.1808 57.757,29.7946341 59.721,29.7946341 L70.821,29.7946341 C70.273,28.8771805 69.96,27.8029659 69.96,26.6564 C69.96,23.2820195 72.681,20.5447317 76.037,20.5447317 C79.393,20.5447317 82.114,23.2820195 82.114,26.6564 C82.114,27.8029659 81.8,28.8771805 81.253,29.7946341 C93.074,29.7946341 88.599,29.7946341 96.43,29.7946341 C98.397,29.7946341 100,28.1818049 100,26.2052098 C100,21.1828293 100,16.1614537 100,11.140078 C100,5.45548293 95.39,0.820985366 89.738,0.820985366 Z M82.114,14.7837659 C82.114,15.3143415 81.684,15.746439 81.158,15.746439 L62.836,15.746439 C59.533,15.746439 65.267,6.84723902 67.651,6.84723902 L81.158,6.84723902 C81.684,6.84723902 82.114,7.27933659 82.114,7.80890732 L82.114,14.7837659 Z M95.045,27.587922 C95.045,27.8371317 94.844,28.0391122 94.595,28.0391122 L85.452,28.0391122 C85.206,28.0391122 85.004,27.8371317 85.004,27.587922 L85.004,8.19377561 C85.004,7.80388293 85.163,7.45117073 85.417,7.19492683 C85.671,6.93868293 86.023,6.7799122 86.41,6.7799122 L93.639,6.7799122 C94.025,6.7799122 94.376,6.93868293 94.631,7.19492683 L94.63,7.19593171 C94.886,7.45318049 95.044,7.8048878 95.044,8.19377561 L95.044,27.587922 L95.045,27.587922 Z" id="Shape" fill="#8E8E8E" fill-rule="nonzero"></path>
                    </g>
                    <polygon id="+" fill="#8E8E8E" points="125.876 22.4328976 118.964 22.4328976 118.964 30.1383024 116.912 30.1383024 116.912 22.4328976 110 22.4328976 110 20.5517659 116.912 20.5517659 116.912 13.0634146 118.964 13.0634146 118.964 20.5517659 125.876 20.5517659"></polygon>
                    <g id="truck" transform="translate(43.000000, 22.000000) scale(-1, 1) translate(-43.000000, -22.000000) " fill="#8E8E8E" fill-rule="nonzero">
                        <path d="M85.14,26.8696 L85.14,0 L28.013898,0 L28.013898,26.6658663 L32.254816,26.6658663 L32.254816,29.5265116 L24.82304,29.5265116 L24.82304,12.8631361 L24.618704,11.680736 L24.00002,10.6285767 L23.061588,9.85550471 L21.298244,9.39221971 L5.23138,9.39221971 L4.201186,9.72526395 L3.714942,10.2601814 L0,21.3687883 L0,35.432 L5.59086,35.432 L5.815062,33.5304848 L6.416718,31.7229291 L7.409072,30.0809652 L8.704146,28.65855 L10.281128,27.5524337 L12.062446,26.7775012 L13.95823,26.3746851 L15.91172,26.3746851 L17.805612,26.7775012 L19.58693,27.5524337 L21.163912,28.65855 L22.458986,30.0809652 L23.454178,31.7229291 L24.072862,33.5304848 L24.277198,35.432 L24.284766,35.432 L57.969934,35.432 L58.177108,33.5137396 L58.778764,31.6857174 L59.93383,29.6474495 L61.06903,28.6073839 L63.5239,27.0370524 L65.38279,26.428642 L67.316414,26.2453746 L69.267066,26.428642 L71.125956,27.0370524 L72.815512,27.9980432 L74.277082,29.268821 L75.422688,30.8372919 L76.210706,32.591821 L76.622216,34.4728698 L76.67803,35.432 L84.935664,35.432 L84.935664,29.7302454 L78.104598,29.7302454 L78.104598,26.8696 L85.14,26.8696 Z M19.853702,21.3687883 L4.445254,21.3687883 L7.27947,12.8436 L19.853702,12.8436 L19.853702,21.3687883 Z" id="Shape"></path>
                        <path d="M21.3059705,34.6591288 L20.7211996,33.1041413 L19.7635701,31.724135 L18.5394853,30.6174241 L17.0704048,29.8309107 L15.4546845,29.437654 L14.6195529,29.3826341 L13.7871038,29.437654 L12.1901605,29.8309107 L10.7183976,30.6174241 L9.47553577,31.724135 L8.53668335,33.1041413 L7.93581779,34.6591288 L7.74,36.3223521 L8.09139905,38.4374598 L8.67885243,40.0718202 L10.0603067,41.5140621 L11.4256664,42.4764586 L12.1892664,42.8174014 L13.7862096,43.2097561 L15.4528962,43.2097561 L17.0686165,42.8174014 L18.5376971,42.029986 L19.7617818,40.9232751 L20.7194113,39.5468766 L21.3041822,37.9882813 L21.5,36.3223521 L21.3059705,34.6591288 Z M17.9225252,36.916747 L17.5139008,38.0090265 L16.7690779,38.9028737 L15.7738943,39.4900528 L14.6204471,39.6875832 L13.4857769,39.4900528 L12.4744987,38.9028737 L11.7296757,38.0090265 L11.3398284,36.916747 L11.287968,36.325058 L11.4811034,35.1804645 L11.7287816,34.6428935 L12.0658743,34.1594403 L12.7284359,33.5370845 L13.4848827,33.1591612 L14.034782,33.0157488 L14.6168705,32.9607289 L14.6186588,32.9607289 L15.2061122,33.0157488 L16.2880278,33.4090055 L16.7672896,33.7490462 L17.5121125,34.6437954 L17.9207369,35.735173 L17.9207369,36.916747 L17.9225252,36.916747 Z" id="Shape"></path>
                        <path d="M73.7659831,34.6591288 L73.1812502,33.1041413 L72.2236829,31.724135 L70.9978895,30.6174241 L69.5289045,29.8309107 L67.9150773,29.437654 L67.08,29.3826341 L66.2476049,29.437654 L64.6516595,29.8309107 L63.178204,30.6174241 L61.9381053,31.724135 L60.9966316,33.1041413 L60.3931228,34.6591288 L60.2,36.3223521 L60.5513762,38.4374598 L61.1405796,40.0718202 L62.5228382,41.5140621 L63.8872151,42.4764586 L64.6507654,42.8174014 L66.2467109,43.2097561 L67.9132891,43.2097561 L69.5271163,42.8174014 L70.9961014,42.029986 L72.2218947,40.9232751 L73.179462,39.5468766 L73.7641949,37.9882813 L73.96,36.3223521 L73.7659831,34.6591288 Z M70.3773931,36.916747 L69.9714776,38.0090265 L69.2267031,38.9028737 L68.2342664,39.4900528 L67.0808941,39.6875832 L65.9471917,39.4900528 L64.9350851,38.9028737 L64.1903106,38.0090265 L63.7987005,36.916747 L63.7468434,36.325058 L63.9426485,35.1804645 L64.1903106,34.6428935 L64.5273814,34.1594403 L65.1872177,33.5370845 L65.9471917,33.1591612 L66.4961611,33.0157488 L67.0782118,32.9607289 L67.08,32.9607289 L67.6647329,33.0157488 L68.7474724,33.4090055 L69.225809,33.7490462 L69.9705835,34.6437954 L70.376499,35.735173 L70.376499,36.916747 L70.3773931,36.916747 Z" id="Shape"></path>
                    </g>
                </g>
            </g>
        </g>
    </g>
</svg>
