<?xml version="1.0" encoding="UTF-8"?>
<svg width="16px" height="17px" viewBox="0 0 16 17" version="1.1" xmlns="http://www.w3.org/2000/svg" xmlns:xlink="http://www.w3.org/1999/xlink">
            <path d="M7.70833333,3.8191672e-14 C10.2995258,3.8191672e-14 12.4240004,1.99737453 12.5369441,4.51580789 L12.5416667,4.72685185 L12.542124,6.71090906 C14.1407952,6.77667365 15.4166667,8.09350562 15.4166667,9.70833333 L15.4166667,9.70833333 L15.4166667,13.8541667 C15.4166667,15.5110209 14.0735209,16.8541667 12.4166667,16.8541667 L12.4166667,16.8541667 L3,16.8541667 C1.34314575,16.8541667 3.73034936e-14,15.5110209 3.73034936e-14,13.8541667 L3.73034936e-14,13.8541667 L3.73034936e-14,9.70833333 C3.73034936e-14,8.05147908 1.34314575,6.70833333 3,6.70833333 L2.875,6.712 L2.875,4.72685185 C2.875,2.10988097 5.04516328,3.8191672e-14 7.70833333,3.8191672e-14 Z M12.4166667,8.70833333 L3,8.70833333 C2.44771525,8.70833333 2,9.15604858 2,9.70833333 L2,9.70833333 L2,13.8541667 C2,14.4064514 2.44771525,14.8541667 3,14.8541667 L3,14.8541667 L12.4166667,14.8541667 C12.9689514,14.8541667 13.4166667,14.4064514 13.4166667,13.8541667 L13.4166667,13.8541667 L13.4166667,9.70833333 C13.4166667,9.15604858 12.9689514,8.70833333 12.4166667,8.70833333 L12.4166667,8.70833333 Z M7.70833333,2 C6.19550597,2 4.96892865,3.13803149 4.88014628,4.56139933 L4.875,4.72685185 L4.875,6.708 L10.541,6.708 L10.5416667,4.72685185 C10.5416667,3.22725585 9.27934637,2 7.70833333,2 Z" id="lock-1"/>
</svg>
