<?xml version="1.0" encoding="UTF-8" standalone="no"?>
<svg width="166px" height="60px" viewBox="0 0 166 60" version="1.1" xmlns="http://www.w3.org/2000/svg" xmlns:xlink="http://www.w3.org/1999/xlink">
    <!-- Generator: Sketch 49 (51002) - http://www.bohemiancoding.com/sketch -->
    <title>PPM-black</title>
    <desc>Created with Sketch.</desc>
    <defs></defs>
    <g id="PPM-black" stroke="none" stroke-width="1" fill="none" fill-rule="evenodd">
        <g id="Car" fill="#000000" fill-rule="nonzero">
            <g id="carrying-box">
                <g id="Group">
                    <path d="M0.0532763533,13.6062962 L1.47042735,35.928604 C1.47042735,37.225295 2.47866667,38.2988118 3.8054359,38.5179135 C3.78788604,38.6319441 3.77647863,38.7459747 3.77647863,38.8632634 L3.77647863,57.2382007 C3.77647863,58.593536 4.95933903,59.6923024 6.41948718,59.6923024 C6.51162393,59.6923024 6.6020057,59.6890444 6.69063248,59.6800849 L12.4013561,59.6800849 C13.8615043,59.6800849 15.0452422,59.8983721 15.0452422,58.5422222 C15.0452422,57.1877014 13.8615043,56.0881204 12.4013561,56.0881204 L9.06161823,55.3534375 L9.06161823,38.8624489 C9.06161823,38.7288702 9.04757835,38.5969204 9.02476353,38.4698577 C10.2348262,38.1709346 11.128114,37.1479171 11.128114,35.9294185 L10.9675328,25.5444873 L17.6005014,32.6396352 C18.4911567,33.5926053 20.0469516,33.6960474 21.0727407,32.8685109 C22.1002849,32.0401599 22.2117265,30.5968581 21.3193162,29.6430735 L10.8604786,18.4501539 L10.8122165,15.2890623 L2.88757835,10.9746324 C1.32300855,10.9746324 0.0532763533,12.1524058 0.0532763533,13.6062962 Z" id="Shape"></path>
                    <ellipse id="Oval" cx="6.42036467" cy="5.12078922" rx="5.46590313" ry="5.07354796"></ellipse>
                </g>
                <path d="M19.6497969,18 C19.2907841,18 19,18.2684329 19,18.59985 L19,29.4008998 C19,29.7308173 19.2899719,30 19.6497969,30 L31.3477663,30 C31.7084036,30 32,29.7315671 32,29.4008998 L32,21.3546613 L28.3651984,18.0007498 L19.6497969,18 Z" id="Shape"></path>
            </g>
        </g>
        <g id="car-with-trailer" transform="translate(105.000000, 30.958333) scale(-1, 1) translate(-105.000000, -30.958333) translate(44.000000, 3.000000)" fill="#000000" fill-rule="nonzero">
            <g id="Group">
                <path d="M48.5732829,0.283075882 C65.8239628,0.287597059 65.8105503,0.287597059 90.2011384,0.292118235 L121.427619,21.3517582 L121.425383,42.4091376 L112.28031,49.4418276 C113.503081,47.3779106 114.205,44.9613418 114.205,42.3820106 C114.205,34.7909553 108.122442,28.6331129 100.620397,28.6331129 C93.1205874,28.6331129 87.035794,34.7909553 87.035794,42.3820106 C87.035794,44.9613418 87.739949,47.3779106 88.9649552,49.4418276 L36.1958027,49.4418276 C37.3939839,47.3688682 38.0802556,44.95456 38.0802556,42.3820106 C38.0802556,34.6507988 31.8859269,28.3867088 24.2497571,28.3867088 C16.6135873,28.3867088 10.4192587,34.6507988 10.4192587,42.3820106 C10.4192587,44.95456 11.1077658,47.3688682 12.305947,49.4418276 L0,42.3254959 L0,25.2580547 L0,21.3562794 L31.2287156,17.8388041 L48.5732829,0.283075882 Z M52.040408,3.79376941 L38.1652013,17.8433253 L69.3872106,17.8433253 L69.3872106,3.79829059 L52.040408,3.79376941 Z M72.8297462,3.79829059 L72.8297462,17.8433253 L100.653928,17.8433253 L86.7764861,3.80281176 L72.8297462,3.79829059 Z" id="Shape"></path>
            </g>
            <path d="M24.5171503,31.0232843 C30.8330882,31.0232843 35.9571078,36.4437854 35.9571078,43.1335784 C35.9571078,49.8233715 30.8330882,55.2438725 24.5171503,55.2438725 C18.2012124,55.2438725 13.0821078,49.8233715 13.0821078,43.1335784 C13.0821078,36.4437854 18.2012124,31.0232843 24.5171503,31.0232843 Z M24.5171503,37.4867897 C21.5729893,37.4867897 19.1891529,40.0123686 19.1891529,43.1335784 C19.1891529,46.2521872 21.5754469,48.7777662 24.5171503,48.7777662 C27.4637688,48.7777662 29.8476053,46.2521872 29.8476053,43.1335784 C29.8500628,40.0123686 27.4637688,37.4867897 24.5171503,37.4867897 Z" id="Shape"></path>
            <path d="M101.142153,31.0232843 C107.45877,31.0232843 112.580882,36.4437854 112.580882,43.1335784 C112.580882,49.8233715 107.45877,55.2438725 101.142153,55.2438725 C94.8255369,55.2438725 89.7058824,49.8233715 89.7058824,43.1335784 C89.7058824,36.4437854 94.8255369,31.0232843 101.142153,31.0232843 Z M101.142153,37.4867897 C98.200134,37.4867897 95.8111257,40.0123686 95.8111257,43.1335784 C95.8111257,46.2521872 98.200134,48.7777662 101.142153,48.7777662 C104.086631,48.7777662 106.475639,46.2521872 106.475639,43.1335784 C106.475639,40.0123686 104.086631,37.4867897 101.142153,37.4867897 Z" id="Shape"></path>
        </g>
    </g>
</svg>