<?xml version="1.0" encoding="UTF-8"?>
<svg width="24px" height="24px" viewBox="0 0 24 24" version="1.1" xmlns="http://www.w3.org/2000/svg" xmlns:xlink="http://www.w3.org/1999/xlink">
        <path d="M15.108,7.2 L12,10.308 L8.892,7.2 L7.2,8.892 L10.308,12 L7.2,15.108 L8.892,16.8 L12,13.692 L15.108,16.8 L16.8,15.108 L13.692,12 L16.8,8.892 L15.108,7.2 Z M12,0 C5.364,0 0,5.364 0,12 C0,18.636 5.364,24 12,24 C18.636,24 24,18.636 24,12 C24,5.364 18.636,0 12,0 Z M12,21.6 C6.708,21.6 2.4,17.292 2.4,12 C2.4,6.708 6.708,2.4 12,2.4 C17.292,2.4 21.6,6.708 21.6,12 C21.6,17.292 17.292,21.6 12,21.6 Z" id="reject-1" />
</svg>