<?xml version="1.0" encoding="UTF-8"?>
<svg width="17px" height="16px" viewBox="0 0 17 16" version="1.1" xmlns="http://www.w3.org/2000/svg" xmlns:xlink="http://www.w3.org/1999/xlink">
        <path d="M13.0307838,2.16479509 L13.2058888,2.34116777 L15.274,4.365 L15.2748425,1.30462403 C15.2748425,0.865082662 15.6078326,0.502819499 16.0368263,0.453310176 L16.1374212,0.447543972 C16.5797825,0.447543972 16.9443698,0.778411322 16.9941968,1.20467039 L17,1.30462403 L17,6.21497856 L16.9946874,6.31667467 C17.0223991,6.56431977 16.9417265,6.82183076 16.7520754,7.01322304 C16.4435541,7.32457701 15.9544731,7.35211868 15.6140578,7.09330723 L15.59,7.072 L11.6448236,7.07205863 C11.1684345,7.07205863 10.7822448,6.68833081 10.7822448,6.21497856 C10.7822448,5.77543719 11.1152349,5.41317403 11.5442287,5.3636647 L11.6448236,5.3578985 L13.83,5.357 L11.9771562,3.5441109 C10.0860455,1.57820882 7.18496103,1.15070928 4.8492339,2.48869599 C2.49624735,3.8365695 1.27813312,6.65463727 1.87598323,9.39686103 C2.47178242,12.1296776 4.72358243,14.1131279 7.38910649,14.2751292 C10.0518438,14.4369613 12.5058637,12.7432982 13.4029234,10.1054203 C13.5554249,9.65697721 14.044919,9.41628102 14.4962391,9.56781033 C14.9475593,9.71933964 15.1897997,10.2057134 15.0372982,10.6541565 C13.8942507,14.0153818 10.7348949,16.1958385 7.28378153,15.9860917 C3.83545489,15.7765143 0.946995276,13.2322759 0.189932954,9.75977628 C-0.565078445,6.29668382 0.977522545,2.72792644 3.98759688,1.00364992 C6.94285126,-0.6892238 10.6070414,-0.199949283 13.0307838,2.16479509 Z" id="rotate-clock-1" />
</svg>
