<?xml version="1.0" encoding="UTF-8"?>
<svg width="17px" height="16px" viewBox="0 0 17 16" version="1.1" xmlns="http://www.w3.org/2000/svg" xmlns:xlink="http://www.w3.org/1999/xlink">
        <path d="M3.94391375,2.16479509 C6.35220555,-0.199949283 9.99303751,-0.6892238 12.929453,1.00364992 C15.920339,2.72792644 17.4531064,6.29668382 16.7029079,9.75977628 C15.9506717,13.2322759 13.0806251,15.7765143 9.65428057,15.9860917 C6.22516703,16.1958385 3.08595122,14.0153818 1.9501903,10.6541565 C1.79866099,10.2057134 2.03935717,9.71933964 2.48780028,9.56781033 C2.93624339,9.41628102 3.42261713,9.65697721 3.57414644,10.1054203 C4.46548765,12.7432982 6.90386389,14.4369613 9.54962703,14.2751292 C12.1981591,14.1131279 14.4356046,12.1296776 15.0276057,9.39686103 C15.6216447,6.65463727 14.4112956,3.8365695 12.0733087,2.48869599 C9.75247112,1.15070928 6.86988018,1.57820882 4.99082478,3.5441109 L4.99082478,3.5441109 L3.149,5.357 L5.32104911,5.3578985 L5.42100275,5.3636647 C5.84726182,5.41317403 6.17812917,5.77543719 6.17812917,6.21497856 C6.17812917,6.68833081 5.79440135,7.07205863 5.32104911,7.07205863 L5.32104911,7.07205863 L1.401,7.072 L1.37710742,7.09330723 C1.06961167,7.32859037 0.640035049,7.32721803 0.334152473,7.09109918 L0.246344297,7.01322304 C0.0579022302,6.82183076 -0.0222561777,6.56431977 0.00527889323,6.31667467 L1.03823906e-05,6.21497856 L1.03823906e-05,1.30462403 L0.00577658678,1.20467039 C0.0552859092,0.778411322 0.417549072,0.447543972 0.857090445,0.447543972 L0.857090445,0.447543972 L0.957044087,0.453310176 C1.38330316,0.502819499 1.71417051,0.865082662 1.71417051,1.30462403 L1.71417051,1.30462403 L1.714,4.364 L3.76992504,2.34116777 Z" id="rotate-count-clock-1" />
</svg>
