<?xml version="1.0" encoding="UTF-8" standalone="no"?>
<svg width="175px" height="54px" viewBox="0 0 175 54" version="1.1" xmlns="http://www.w3.org/2000/svg" xmlns:xlink="http://www.w3.org/1999/xlink">
    <!-- Generator: Sketch 49 (51002) - http://www.bohemiancoding.com/sketch -->
    <title>Trailer-gray</title>
    <desc>Created with Sketch.</desc>
    <defs>
        <rect id="path-1" x="148.75" y="0" width="19.25" height="38.5"></rect>
    </defs>
    <g id="Trailer-gray" stroke="none" stroke-width="1" fill="none" fill-rule="evenodd">
        <g id="car-with-trailer" transform="translate(87.500000, 27.000000) scale(-1, 1) translate(-87.500000, -27.000000) ">
            <g id="Group" transform="translate(0.000000, 9.000000)">
                <path d="M38.02575,3.33025 C51.5305,3.33375 51.52,3.33375 70.61425,3.33725 L95.06,19.64025 L95.05825,35.9415 L87.899,41.38575 C88.85625,39.788 89.40575,37.91725 89.40575,35.9205 C89.40575,30.044 84.644,25.277 78.771,25.277 C72.89975,25.277 68.13625,30.044 68.13625,35.9205 C68.13625,37.91725 68.6875,39.788 69.6465,41.38575 L28.336,41.38575 C29.274,39.781 29.81125,37.912 29.81125,35.9205 C29.81125,29.9355 24.962,25.08625 18.984,25.08625 C13.006,25.08625 8.15675,29.9355 8.15675,35.9205 C8.15675,37.912 8.69575,39.781 9.63375,41.38575 L0,35.87675 L0,22.66425 L0,19.64375 L24.4475,16.92075 L38.02575,3.33025 Z M40.74,6.048 L29.87775,16.92425 L54.32,16.92425 L54.32,6.0515 L40.74,6.048 Z M57.015,6.0515 L57.015,16.92425 L78.79725,16.92425 L67.93325,6.055 L57.015,6.0515 Z" id="Shape" fill="#8E8E8E" fill-rule="nonzero"></path>
                <g id="Rectangle">
                    <use fill="#8E8E8E" fill-rule="evenodd" xlink:href="#path-1"></use>
                    <rect stroke="#8E8E8E" stroke-width="1" x="149.25" y="0.5" width="18.25" height="37.5"></rect>
                </g>
                <polygon id="Path-2" stroke="#8E8E8E" fill="#8E8E8E" points="147 21 106.75 21 106.75 11.4545455 117.727273 0 147 0"></polygon>
            </g>
            <path d="M18.998281,37 C23.4159862,37 27,40.580756 27,45 C27,49.419244 23.4159862,53 18.998281,53 C14.5805758,53 11,49.419244 11,45 C11,40.580756 14.5805758,37 18.998281,37 Z M18.998281,41.2697595 C16.9389772,41.2697595 15.2715943,42.9381443 15.2715943,45 C15.2715943,47.0601375 16.9406962,48.7285223 18.998281,48.7285223 C21.0593038,48.7285223 22.7266867,47.0601375 22.7266867,45 C22.7284057,42.9381443 21.0593038,41.2697595 18.998281,41.2697595 Z" id="Shape" fill="#8E8E8E" fill-rule="nonzero"></path>
            <path d="M78.9991404,38 C83.4173203,38 87,41.580756 87,46 C87,50.419244 83.4173203,54 78.9991404,54 C74.5809606,54 71,50.419244 71,46 C71,41.580756 74.5809606,38 78.9991404,38 Z M78.9991404,42.2697595 C76.9413345,42.2697595 75.2703342,43.9381443 75.2703342,46 C75.2703342,48.0601375 76.9413345,49.7285223 78.9991404,49.7285223 C81.0586655,49.7285223 82.7296658,48.0601375 82.7296658,46 C82.7296658,43.9381443 81.0586655,42.2697595 78.9991404,42.2697595 Z" id="Shape" fill="#8E8E8E" fill-rule="nonzero"></path>
            <path d="M132.998281,37 C137.415216,37 141,40.580756 141,45 C141,49.419244 137.415216,53 132.998281,53 C128.579626,53 125,49.419244 125,45 C125,40.580756 128.579626,37 132.998281,37 Z M132.998281,41.2697595 C130.938534,41.2697595 129.269074,42.9381443 129.269074,45 C129.269074,47.0601375 130.938534,48.7285223 132.998281,48.7285223 C135.056308,48.7285223 136.727488,47.0601375 136.727488,45 C136.727488,42.9381443 135.056308,41.2697595 132.998281,41.2697595 Z" id="Shape" fill="#8E8E8E" fill-rule="nonzero"></path>
            <path d="M94.5936237,40 L92.6897171,40 C92.3107319,40 92,40.2959564 92,40.6590192 L92,45.3409808 C92,45.7057643 92.3107319,46 92.6897171,46 L108,46 L108,42.5672498 L95.9694656,42.5672498 C95.5904805,42.5672498 95.2815447,42.267852 95.2815447,41.9065099 L95.2815447,40.6590192 C95.2815447,40.2959564 94.9726089,40 94.5936237,40 Z" id="Shape" fill="#8E8E8E" fill-rule="nonzero"></path>
            <path d="M156.978835,0 C149.413529,0.00346824819 140.664606,0.00346824819 132.017538,0.00346824819 C113.278126,0.00520237228 98,15.105955 98,33.6211979 L98,43.8057087 C98,47.2149967 100.816795,50 104.265788,50 L123.75857,50 C122.796223,48.4167447 122.246562,46.562966 122.246562,44.5843305 C122.246562,38.7611417 127.024928,34.0373877 132.918421,34.0373877 C138.811914,34.0373877 143.59028,38.7611417 143.59028,44.5843305 C143.59028,46.562966 143.038862,48.4167447 142.078272,50 C162.837207,50 154.97863,50 168.7307,50 C172.184961,50 175,47.2167308 175,43.8057087 C175,35.1385565 175,26.4731384 175,17.8077203 C175,7.99778032 166.904349,0 156.978835,0 Z M143.59028,24.0956543 C143.59028,25.0112718 142.835154,25.7569452 141.911442,25.7569452 L109.736059,25.7569452 C103.93564,25.7569452 114.005154,10.3995422 118.191712,10.3995422 L141.911442,10.3995422 C142.835154,10.3995422 143.59028,11.1452156 143.59028,12.0590989 L143.59028,24.0956543 Z M166.298492,46.1918635 C166.298492,46.6219263 165.945515,46.9704852 165.508245,46.9704852 L149.452163,46.9704852 C149.020161,46.9704852 148.665428,46.6219263 148.665428,46.1918635 L148.665428,12.7232685 C148.665428,12.0504283 148.944648,11.4417508 149.390699,10.9995491 C149.836751,10.5573475 150.4549,10.2833559 151.134513,10.2833559 L163.829407,10.2833559 C164.507264,10.2833559 165.123657,10.5573475 165.571464,10.9995491 L165.569708,11.0012833 C166.019272,11.445219 166.296736,12.0521625 166.296736,12.7232685 L166.296736,46.1918635 L166.298492,46.1918635 Z" id="Shape" fill="#8E8E8E" fill-rule="nonzero"></path>
        </g>
    </g>
</svg>
