<?xml version="1.0" encoding="UTF-8" standalone="no"?>
<svg width="113px" height="57px" viewBox="0 0 113 57" version="1.1" xmlns="http://www.w3.org/2000/svg" xmlns:xlink="http://www.w3.org/1999/xlink">
    <!-- Generator: Sketch 49 (51002) - http://www.bohemiancoding.com/sketch -->
    <title>Truck-black</title>
    <desc>Created with Sketch.</desc>
    <defs></defs>
    <g id="Truck-black" stroke="none" stroke-width="1" fill="none" fill-rule="evenodd">
        <g id="Group-4-Copy" fill="#000000" fill-rule="nonzero">
            <g id="truck" transform="translate(56.500000, 28.500000) scale(-1, 1) translate(-56.500000, -28.500000) ">
                <path d="M112.86,35.4449397 L112.86,0 L37.134702,0 L37.134702,35.1761851 L42.756384,35.1761851 L42.756384,38.9497955 L32.90496,38.9497955 L32.90496,16.9683614 L32.634096,15.4086024 L31.81398,14.0206501 L30.570012,13.0008549 L28.232556,12.3897141 L6.93462,12.3897141 L5.569014,12.8290482 L4.924458,13.5346827 L0,28.188563 L0,46.74 L7.41114,46.74 L7.708338,44.2316229 L8.505882,41.847192 L9.821328,39.6812009 L11.538054,37.8048268 L13.628472,36.3456975 L15.989754,35.3234479 L18.50277,34.7920745 L21.09228,34.7920745 L23.602788,35.3234479 L25.96407,36.3456975 L28.054488,37.8048268 L29.771214,39.6812009 L31.090422,41.847192 L31.910538,44.2316229 L32.181402,46.74 L32.191434,46.74 L76.843866,46.74 L77.118492,44.2095334 L77.916036,41.7981043 L79.44717,39.1093302 L80.95197,37.7373314 L84.2061,35.665834 L86.67021,34.8632515 L89.233386,34.621495 L91.819134,34.8632515 L94.283244,35.665834 L96.522888,36.9335217 L98.460318,38.6098637 L99.978912,40.6789067 L101.023494,42.9933878 L101.568984,45.4747667 L101.64297,46.74 L112.589136,46.74 L112.589136,39.2185502 L103.534002,39.2185502 L103.534002,35.4449397 L112.86,35.4449397 Z M26.317698,28.188563 L5.892546,28.188563 L9.64953,16.9425904 L26.317698,16.9425904 L26.317698,28.188563 Z" id="Shape"></path>
                <path d="M28.2427981,45.7204697 L27.4676366,43.6692133 L26.1982208,41.8487828 L24.5755969,40.3888689 L22.6282111,39.3513425 L20.4864423,38.8325793 L19.3794074,38.76 L18.2759283,38.8325793 L16.15905,39.3513425 L14.2081084,40.3888689 L12.5605939,41.8487828 L11.3160686,43.6692133 L10.5195724,45.7204697 L10.26,47.9145049 L10.725808,50.7046419 L11.5045253,52.8606027 L13.3357554,54.7631311 L15.1456508,56.0326732 L16.1578647,56.4824266 L18.274743,57 L20.4840717,57 L22.6258405,56.4824266 L24.5732263,55.4437104 L26.1958503,53.9837965 L27.4652661,52.1681252 L28.2404276,50.1121096 L28.5,47.9145049 L28.2427981,45.7204697 Z M23.7577659,48.6985988 L23.2161011,50.1394755 L22.2287777,51.318591 L20.9095809,52.0931663 L19.3805926,52.3537378 L17.8764949,52.0931663 L16.5359634,51.318591 L15.5486399,50.1394755 L15.0318656,48.6985988 L14.9631204,47.9180744 L15.219137,46.4081879 L15.5474547,45.6990528 L15.9942985,45.0613072 L16.8725778,44.2403288 L17.8753096,43.7417926 L18.6042459,43.5526106 L19.3758516,43.4800313 L19.3782221,43.4800313 L20.1569394,43.5526106 L21.5911066,44.0713738 L22.2264072,44.5199374 L23.2137306,45.7002427 L23.7553954,47.1399295 L23.7553954,48.6985988 L23.7577659,48.6985988 Z" id="Shape"></path>
                <path d="M97.7828148,45.7204697 L97.0077037,43.6692133 L95.7383704,41.8487828 L94.1134815,40.3888689 L92.1662222,39.3513425 L90.026963,38.8325793 L88.92,38.76 L87.8165926,38.8325793 L85.701037,39.3513425 L83.7478519,40.3888689 L82.104,41.8487828 L80.856,43.6692133 L80.056,45.7204697 L79.8,47.9145049 L80.2657778,50.7046419 L81.0468148,52.8606027 L82.8791111,54.7631311 L84.6877037,56.0326732 L85.6998519,56.4824266 L87.8154074,57 L90.0245926,57 L92.1638519,56.4824266 L94.1111111,55.4437104 L95.736,53.9837965 L97.0053333,52.1681252 L97.7804444,50.1121096 L98.04,47.9145049 L97.7828148,45.7204697 Z M93.290963,48.6985988 L92.7528889,50.1394755 L91.7656296,51.318591 L90.4500741,52.0931663 L88.9211852,52.3537378 L87.4183704,52.0931663 L86.0767407,51.318591 L85.0894815,50.1394755 L84.5703704,48.6985988 L84.5016296,47.9180744 L84.7611852,46.4081879 L85.0894815,45.6990528 L85.5362963,45.0613072 L86.410963,44.2403288 L87.4183704,43.7417926 L88.1460741,43.5526106 L88.9176296,43.4800313 L88.92,43.4800313 L89.6951111,43.5526106 L91.1303704,44.0713738 L91.7644444,44.5199374 L92.7517037,45.7002427 L93.2897778,47.1399295 L93.2897778,48.6985988 L93.290963,48.6985988 Z" id="Shape"></path>
            </g>
        </g>
    </g>
</svg>