<?xml version="1.0" encoding="UTF-8" standalone="no"?>
<svg width="99px" height="68px" viewBox="0 0 99 68" version="1.1" xmlns="http://www.w3.org/2000/svg" xmlns:xlink="http://www.w3.org/1999/xlink">
    <!-- Generator: Sketch 49 (51002) - http://www.bohemiancoding.com/sketch -->
    <title>Truck-gray_Check-gray</title>
    <desc>Created with Sketch.</desc>
    <defs></defs>
    <g id="Truck-gray_Check-gray" stroke="none" stroke-width="1" fill="none" fill-rule="evenodd">
        <g id="Shipment-1-Icon-Copy" transform="translate(0.000000, 1.000000)" fill-rule="nonzero">
            <g id="truck" transform="translate(49.500000, 42.000000) scale(-1, 1) translate(-49.500000, -42.000000) translate(0.000000, 17.000000)" fill="#DCDCDC">
                <path d="M99,31.0920524 L99,0 L32.5743,0 L32.5743,30.8563027 L37.5056,30.8563027 L37.5056,34.1664873 L28.864,34.1664873 L28.864,14.8845275 L28.6264,13.5163179 L27.907,12.2988159 L26.8158,11.4042587 L24.7654,10.8681702 L6.083,10.8681702 L4.8851,11.2535511 L4.3197,11.8725287 L0,24.7268097 L0,41 L6.501,41 L6.7617,38.7996692 L7.4613,36.7080631 L8.6152,34.808071 L10.1211,33.1621288 L11.9548,31.8821908 L14.0261,30.9854806 L16.2305,30.5193636 L18.502,30.5193636 L20.7042,30.9854806 L22.7755,31.8821908 L24.6092,33.1621288 L26.1151,34.808071 L27.2723,36.7080631 L27.9917,38.7996692 L28.2293,41 L28.2381,41 L67.4069,41 L67.6478,38.7802925 L68.3474,36.6650038 L69.6905,34.30643 L71.0105,33.1029223 L73.865,31.2858193 L76.0265,30.5817996 L78.2749,30.3697325 L80.5431,30.5817996 L82.7046,31.2858193 L84.6692,32.397826 L86.3687,33.8683015 L87.7008,35.6832515 L88.6171,37.713498 L89.0956,39.8901462 L89.1605,41 L98.7624,41 L98.7624,34.402237 L90.8193,34.402237 L90.8193,31.0920524 L99,31.0920524 Z M23.0857,24.7268097 L5.1689,24.7268097 L8.4645,14.8619214 L23.0857,14.8619214 L23.0857,24.7268097 Z" id="Shape"></path>
                <path d="M24.7743843,40.1056751 L24.0944181,38.3063275 L22.9808954,36.7094586 L21.5575411,35.4288324 L19.8493079,34.5187215 L17.9705634,34.063666 L16.9994801,34 L16.031516,34.063666 L14.1746052,34.5187215 L12.463253,35.4288324 L11.0180649,36.7094586 L9.92637598,38.3063275 L9.22769511,40.1056751 L9,42.0302674 L9.40860355,44.477756 L10.0916889,46.3689498 L11.6980311,48.0378343 L13.2856586,49.1514677 L14.1735655,49.5459883 L16.0304763,50 L17.968484,50 L19.8472285,49.5459883 L21.5554617,48.6348337 L22.978816,47.3542074 L24.0923387,45.7615134 L24.7723049,43.9579909 L25,42.0302674 L24.7743843,40.1056751 Z M20.8401456,42.7180691 L20.365001,43.9819961 L19.4989278,45.0163079 L18.3417376,45.6957599 L17.0005199,45.9243314 L15.6811359,45.6957599 L14.505231,45.0163079 L13.6391578,43.9819961 L13.185847,42.7180691 L13.1255442,42.0333986 L13.3501202,40.7089367 L13.6381181,40.0868885 L14.0300864,39.5274625 L14.8005069,38.8073059 L15.6800962,38.3699935 L16.3195139,38.2040444 L16.996361,38.1403783 L16.9984404,38.1403783 L17.6815258,38.2040444 L18.9395672,38.6590998 L19.4968484,39.0525766 L20.3629216,40.0879322 L20.8380662,41.3508154 L20.8380662,42.7180691 L20.8401456,42.7180691 Z" id="Shape"></path>
                <path d="M85.774399,40.1056751 L85.0944769,38.3063275 L83.9810266,36.7094586 L82.5556855,35.4288324 L80.8475634,34.5187215 L78.9710201,34.063666 L78,34 L77.0320988,34.063666 L75.1763483,34.5187215 L73.4630279,35.4288324 L72.0210526,36.7094586 L70.9263158,38.3063275 L70.2245614,40.1056751 L70,42.0302674 L70.408577,44.477756 L71.0936972,46.3689498 L72.7009747,48.0378343 L74.2874594,49.1514677 L75.1753086,49.5459883 L77.0310591,50 L78.9689409,50 L80.8454841,49.5459883 L82.5536062,48.6348337 L83.9789474,47.3542074 L85.0923977,45.7615134 L85.7723197,43.9579909 L86,42.0302674 L85.774399,40.1056751 Z M81.834178,42.7180691 L81.3621832,43.9819961 L80.4961663,45.0163079 L79.3421702,45.6957599 L78.0010396,45.9243314 L76.682781,45.6957599 L75.5059129,45.0163079 L74.639896,43.9819961 L74.1845354,42.7180691 L74.1242365,42.0333986 L74.3519168,40.7089367 L74.639896,40.0868885 L75.0318389,39.5274625 L75.7990903,38.8073059 L76.682781,38.3699935 L77.3211176,38.2040444 L77.9979207,38.1403783 L78,38.1403783 L78.679922,38.2040444 L79.9389214,38.6590998 L80.4951267,39.0525766 L81.3611436,40.0879322 L81.8331384,41.3508154 L81.8331384,42.7180691 L81.834178,42.7180691 Z" id="Shape"></path>
            </g>
            <path d="M41.6666511,44.5320688 C50.4649196,29.8816893 64.7094795,8.80011505 77.0809744,0 L77.9142684,13.3849946 C57.9142892,26.7699893 51.6665987,40.3492317 42.4999451,58.7536308 C36.6666353,50.3880406 25.8333098,45.3686362 20,41.1857991 C22.0856691,38.8704035 25.0000158,35.3299112 27.4999817,32.8202089 C30.8333255,34.4933438 38.3333072,40.3492317 41.6666511,44.5320688 Z" id="Check-Copy-3" stroke="#9B9B9B" fill="#FFFFFF"></path>
        </g>
    </g>
</svg>