<?xml version="1.0" encoding="UTF-8"?>
<svg width="24px" height="24px" viewBox="0 0 24 24" version="1.1" xmlns="http://www.w3.org/2000/svg" xmlns:xlink="http://www.w3.org/1999/xlink">
        <path d="M23.4348445,17.9401659 C23.8109444,18.3162658 24,18.7748261 24,19.3138356 C24,19.8528451 23.8109444,20.3114053 23.4348445,20.6875052 L20.6875052,23.4348445 C20.3093941,23.8129557 19.8508338,24.0020112 19.3118244,24.0020112 C18.7748261,24.0020112 18.3162658,23.8129557 17.9401659,23.4348445 L11.9989944,17.4956842 L6.05983407,23.4348445 C5.68373418,23.8129557 5.22517389,24.0020112 4.68616442,24.0020112 C4.14715495,24.0020112 3.69060588,23.8129557 3.31249476,23.4348445 L0.565155451,20.6875052 C0.187044331,20.3114053 0,19.8528451 0,19.3138356 C0,18.7748261 0.187044331,18.3162658 0.565155451,17.9401659 L6.50431576,12.0010056 L0.565155451,6.0618453 C0.187044331,5.68373418 0,5.22718512 0,4.68616442 C0,4.14916618 0.187044331,3.69060588 0.565155451,3.31450599 L3.31249476,0.565155451 C3.69060588,0.18905556 4.14715495,0 4.68616442,0 C5.22517389,0 5.68373418,0.18905556 6.05983407,0.565155451 L11.9989944,6.50431576 L17.9401659,0.565155451 C18.3162658,0.18905556 18.7748261,0 19.3118244,0 C19.8508338,0 20.3093941,0.18905556 20.6875052,0.565155451 L23.4348445,3.31450599 C23.8109444,3.69060588 24,4.14916618 24,4.68616442 C24,5.22718512 23.8109444,5.68373418 23.4348445,6.0618453 L17.4956842,12.0010056 L23.4348445,17.9401659 Z" id="x-heavy-1" />
</svg>
