<?xml version="1.0" encoding="UTF-8"?>
<svg width="12px" height="12px" viewBox="0 0 12 12" version="1.1" xmlns="http://www.w3.org/2000/svg" xmlns:xlink="http://www.w3.org/1999/xlink">
        <path d="M10.9901876,0.781048584 C11.2505371,1.04139811 11.2505371,1.4635081 10.9901876,1.72385763 L6.82878644,5.88578644 L10.9901876,10.0473785 C11.2505371,10.3077281 11.2505371,10.7298381 10.9901876,10.9901876 C10.7298381,11.2505371 10.3077281,11.2505371 10.0473785,10.9901876 L5.88578644,6.82878644 L1.72385763,10.9901876 C1.4635081,11.2505371 1.04139811,11.2505371 0.781048584,10.9901876 C0.520699056,10.7298381 0.520699056,10.3077281 0.781048584,10.0473785 L4.94278644,5.88578644 L0.781048584,1.72385763 C0.520699056,1.4635081 0.520699056,1.04139811 0.781048584,0.781048584 C1.04139811,0.520699056 1.4635081,0.520699056 1.72385763,0.781048584 L5.88578644,4.94278644 L10.0473785,0.781048584 C10.3077281,0.520699056 10.7298381,0.520699056 10.9901876,0.781048584 Z" id="x-light-1" />
</svg>
