<?xml version="1.0" encoding="UTF-8"?>
<svg width="16px" height="16px" viewBox="0 0 16 16" version="1.1" xmlns="http://www.w3.org/2000/svg" xmlns:xlink="http://www.w3.org/1999/xlink">
        <path d="M7.23809524,-2.84217094e-14 C11.2355849,-2.84217094e-14 14.4761905,3.24060562 14.4761905,7.23809524 C14.4761905,8.91640636 13.9049796,10.461304 12.9463634,11.6889829 L15.7396505,14.4825718 C16.0867832,14.8297045 16.0867832,15.3925178 15.7396505,15.7396505 C15.4192203,16.0600807 14.9150149,16.0847291 14.5663116,15.8135959 L14.4825718,15.7396505 L11.6889829,12.9463634 C10.461304,13.9049796 8.91640636,14.4761905 7.23809524,14.4761905 C3.24060562,14.4761905 -2.84217094e-14,11.2355849 -2.84217094e-14,7.23809524 C-2.84217094e-14,3.24060562 3.24060562,-2.84217094e-14 7.23809524,-2.84217094e-14 Z M7.23809524,1.77777778 C4.22244518,1.77777778 1.77777778,4.22244518 1.77777778,7.23809524 C1.77777778,10.2537453 4.22244518,12.6984127 7.23809524,12.6984127 C8.53859433,12.6984127 9.73290402,12.2437619 10.6707503,11.4847342 C10.6860772,11.2803614 10.7718817,11.0821507 10.9270162,10.9270162 C11.0821208,10.7719116 11.2802848,10.6861103 11.4830291,10.6696123 C12.2434404,9.73374834 12.6984127,8.53905403 12.6984127,7.23809524 C12.6984127,4.22244518 10.2537453,1.77777778 7.23809524,1.77777778 Z M7.49206349,4.06349206 C7.94791757,4.06349206 8.32362541,4.4066389 8.37497218,4.84871773 L8.38095238,4.95238095 L8.38,6.603 L10.031746,6.6031746 C10.5226658,6.6031746 10.9206349,7.00114371 10.9206349,7.49206349 C10.9206349,7.94791757 10.5774881,8.32362541 10.1354093,8.37497218 L10.031746,8.38095238 L8.38,8.38 L8.38095238,10.031746 C8.38095238,10.5226658 7.98298327,10.9206349 7.49206349,10.9206349 C7.03620941,10.9206349 6.66050157,10.5774881 6.60915481,10.1354093 L6.6031746,10.031746 L6.603,8.38 L4.95238095,8.38095238 C4.46146117,8.38095238 4.06349206,7.98298327 4.06349206,7.49206349 C4.06349206,7.03620941 4.4066389,6.66050157 4.84871773,6.60915481 L4.95238095,6.6031746 L6.603,6.603 L6.6031746,4.95238095 C6.6031746,4.46146117 7.00114371,4.06349206 7.49206349,4.06349206 Z" id="zoom-in-1" />
</svg>
