<?xml version="1.0" encoding="UTF-8"?>
<svg width="17px" height="17px" viewBox="0 0 17 17" version="1.1" xmlns="http://www.w3.org/2000/svg" xmlns:xlink="http://www.w3.org/1999/xlink">
        <path d="M7.23809524,-6.53699317e-13 C11.2355849,-6.53699317e-13 14.4761905,3.24060562 14.4761905,7.23809524 C14.4761905,8.91640636 13.9049796,10.461304 12.9463634,11.6889829 L16.0729838,14.8159051 C16.4201165,15.1630378 16.4201165,15.7258511 16.0729838,16.0729838 C15.7525536,16.393414 15.2483482,16.4180625 14.8996449,16.1469292 L14.8159051,16.0729838 L11.6889829,12.9463634 C10.461304,13.9049796 8.91640636,14.4761905 7.23809524,14.4761905 C3.24060562,14.4761905 -6.53699317e-13,11.2355849 -6.53699317e-13,7.23809524 C-6.53699317e-13,3.24060562 3.24060562,-6.53699317e-13 7.23809524,-6.53699317e-13 Z M7.23809524,1.77777778 C4.22244518,1.77777778 1.77777778,4.22244518 1.77777778,7.23809524 C1.77777778,10.2537453 4.22244518,12.6984127 7.23809524,12.6984127 C10.2537453,12.6984127 12.6984127,10.2537453 12.6984127,7.23809524 C12.6984127,4.22244518 10.2537453,1.77777778 7.23809524,1.77777778 Z M10.031746,6.6031746 C10.5226658,6.6031746 10.9206349,7.00114371 10.9206349,7.49206349 C10.9206349,7.94791757 10.5774881,8.32362541 10.1354093,8.37497218 L10.031746,8.38095238 L4.95238095,8.38095238 C4.46146117,8.38095238 4.06349206,7.98298327 4.06349206,7.49206349 C4.06349206,7.03620941 4.4066389,6.66050157 4.84871773,6.60915481 L4.95238095,6.6031746 L10.031746,6.6031746 Z" id="zoom-out-1" />
</svg>
